<?xml version="1.0" ?><!DOCTYPE svg  PUBLIC '-//W3C//DTD SVG 1.1//EN'  'http://www.w3.org/Graphics/SVG/1.1/DTD/svg11.dtd'><svg enable-background="new 0 0 24 24" height="24px" id="Layer_1" version="1.1" viewBox="0 0 24 24" width="24px" xml:space="preserve" xmlns="http://www.w3.org/2000/svg" xmlns:xlink="http://www.w3.org/1999/xlink"><g><path d="M12,11.308c-1.398,0-2.539,1.139-2.539,2.538c0,1.4,1.141,2.54,2.539,2.54s2.541-1.139,2.541-2.54   C14.541,12.447,13.398,11.308,12,11.308"/><path d="M20.861,5.537h-3.15c-0.008-0.031-0.012-0.063-0.027-0.095l-0.289-0.729c-0.43-1.07-1.723-1.943-2.875-1.943H9.48   c-1.152,0-2.445,0.874-2.873,1.943L6.316,5.442C6.303,5.475,6.299,5.506,6.289,5.537H3.141C1.416,5.537,0,6.952,0,8.678v9.412   c0,1.728,1.416,3.14,3.141,3.14h17.721c1.725,0,3.139-1.413,3.139-3.14V8.678C24,6.952,22.586,5.537,20.861,5.537z M12,18.692   c-2.672,0-4.844-2.175-4.844-4.847S9.328,9,12,9s4.846,2.174,4.846,4.846S14.672,18.692,12,18.692z M21.855,9.544h-3.094V7.997   h3.094V9.544z"/></g></svg>