<?xml version="1.0" encoding="utf-8"?>
<!-- Generator: Adobe Illustrator 21.1.0, SVG Export Plug-In . SVG Version: 6.00 Build 0)  -->
<svg version="1.1" id="Layer_1" xmlns="http://www.w3.org/2000/svg" xmlns:xlink="http://www.w3.org/1999/xlink" x="0px" y="0px"
	 viewBox="0 0 319.5 317" style="enable-background:new 0 0 319.5 317;" xml:space="preserve">
<style type="text/css">
	.st0{display:none;}
	.st1{display:inline;fill:#191E3C;stroke:#7C7C7C;stroke-miterlimit:10;stroke-dasharray:12;}
	.st2{display:inline;}
	.st3{fill:none;stroke:#3BD1EF;stroke-width:5;stroke-linecap:round;stroke-miterlimit:10;}
	.st4{fill:#3BD1EF;}
	.st5{fill:none;}
	.st6{fill:#212121;}
	.st7{fill:#FFFFFF;}
	.st8{fill:none;stroke:#2A2C38;stroke-width:5;stroke-miterlimit:10;}
	.st9{display:inline;fill:none;stroke:#2A2C38;stroke-width:5;stroke-miterlimit:10;}
	.st10{display:inline;fill:none;stroke:#2A2C38;stroke-width:3;stroke-miterlimit:10;}
	.st11{fill:none;stroke:#2A2C38;stroke-width:3;stroke-miterlimit:10;}
	.st12{display:inline;fill:none;stroke:#3BD1EF;stroke-width:5;stroke-miterlimit:10;}
	.st13{fill:#A85252;}
</style>
<g id="Layer_1_1_" class="st0">
	<rect x="-605.2" y="-416.9" class="st1" width="1448.1" height="1088.6"/>
	<rect x="480.9" y="-416.9" class="st1" width="362" height="362.9"/>
	<rect x="480.9" y="-54" class="st1" width="362" height="362.9"/>
	<rect x="480.9" y="308.9" class="st1" width="362" height="362.9"/>
	<rect x="118.9" y="-416.9" class="st1" width="362" height="362.9"/>
	<rect x="118.9" y="-54" class="st1" width="362" height="362.9"/>
	<rect x="118.4" y="308.9" class="st1" width="362" height="362.9"/>
	<rect x="-243.1" y="-416.9" class="st1" width="362" height="362.9"/>
	<rect x="-243.1" y="-54.1" class="st1" width="362" height="362.9"/>
	<rect x="-243.1" y="308.9" class="st1" width="362" height="362.9"/>
	<rect x="-605.2" y="-416.9" class="st1" width="362" height="362.9"/>
	<rect x="-605.2" y="-55.2" class="st1" width="362" height="362.9"/>
	<rect x="-605.2" y="308.9" class="st1" width="362" height="362.9"/>
</g>
<g id="small_chair" class="st0">
	<g class="st2">
		<g>
			<path class="st3" d="M13.7,69.5V56.2c0-7.3,11.1-13.4,24.7-13.4H283c13.6,0,24.7,6,24.7,13.4v13.3"/>
			<polygon class="st3" points="160.7,100.8 273,100.8 307.7,85.2 307.7,69.5 160.7,69.5 13.7,69.5 13.7,85.2 48.4,100.8 			"/>
			<g>
				<path class="st3" d="M214.6,100.8c0,0,11.5,177,12.7,177c1.1,0,16.3,0,17.3,0s12.7-177,12.7-177"/>
				<path class="st3" d="M64.2,100.8c0,0,11.6,177,12.7,177s16.2,0,17.3,0s12.7-177,12.7-177"/>
			</g>
		</g>
		<g>
			<g>
				<g>
					<circle class="st4" cx="175.3" cy="80.2" r="1.6"/>
					<circle class="st4" cx="146.1" cy="80.2" r="1.6"/>
					<circle class="st4" cx="160.7" cy="80.2" r="1.6"/>
				</g>
				<g>
					<circle class="st4" cx="146.1" cy="80.2" r="1.6"/>
					<circle class="st4" cx="116.9" cy="80.2" r="1.6"/>
					<circle class="st4" cx="131.5" cy="80.2" r="1.6"/>
				</g>
				<g>
					<circle class="st4" cx="204.5" cy="80.2" r="1.6"/>
					<circle class="st4" cx="175.3" cy="80.2" r="1.6"/>
					<circle class="st4" cx="189.9" cy="80.2" r="1.6"/>
				</g>
				<g>
					<circle class="st4" cx="87.7" cy="80.2" r="1.6"/>
					<circle class="st4" cx="58.5" cy="80.2" r="1.6"/>
					<circle class="st4" cx="73.1" cy="80.2" r="1.6"/>
				</g>
				<g>
					<circle class="st4" cx="58.5" cy="80.2" r="1.6"/>
					<circle class="st4" cx="29.3" cy="80.2" r="1.6"/>
					<circle class="st4" cx="43.9" cy="80.2" r="1.6"/>
				</g>
				<g>
					<circle class="st4" cx="116.9" cy="80.2" r="1.6"/>
					<circle class="st4" cx="87.7" cy="80.2" r="1.6"/>
					<circle class="st4" cx="102.3" cy="80.2" r="1.6"/>
				</g>
			</g>
			<circle class="st4" cx="292.1" cy="80.2" r="1.6"/>
			<g>
				<circle class="st4" cx="262.9" cy="80.2" r="1.6"/>
				<circle class="st4" cx="233.7" cy="80.2" r="1.6"/>
				<circle class="st4" cx="248.3" cy="80.2" r="1.6"/>
			</g>
			<g>
				<circle class="st4" cx="233.7" cy="80.2" r="1.6"/>
				<circle class="st4" cx="204.5" cy="80.2" r="1.6"/>
				<circle class="st4" cx="219.1" cy="80.2" r="1.6"/>
			</g>
			<g>
				<circle class="st4" cx="292.1" cy="80.2" r="1.6"/>
				<circle class="st4" cx="262.9" cy="80.2" r="1.6"/>
				<circle class="st4" cx="277.5" cy="80.2" r="1.6"/>
			</g>
		</g>
		<line class="st3" x1="75.5" y1="264.2" x2="95.6" y2="264.2"/>
		<line class="st3" x1="226.1" y1="264.2" x2="245.3" y2="264.2"/>
	</g>
</g>
<g id="library">
</g>
<g>
	<path class="st5" d="M131.1,138.1c-1.5,0.8-3.5,1.8-5.7,2.9l-1,0.5c-6.2,3.3-12,2.3-18.1,1.2l-1.6-0.3c-0.9-0.1-1.9-0.4-2.8-0.7
		c-3-1-5.9-2.5-8.7-3.9l-0.8-0.4c-0.6-0.4-1.3-0.7-1.9-1.1c-0.7-0.4-1.3-0.8-2-1.2c-1.3-0.7-2.7-1.4-3.9-2.3
		c-0.4-0.3-0.8-0.6-1.1-0.9c-0.2-0.2-0.6-0.6-0.9-0.8c-0.2,0.4-0.4,0.7-0.6,1.1c-0.8,1.2-1.3,2.8-1.7,4.4l-0.1,0.2
		c-0.5,1.8-0.8,3.4-1.1,5c-0.7,3.7-1.1,7-1.4,10.2c-0.2,2.6-0.4,5.4-0.5,8v0.1c-0.1,1-0.1,2-0.1,3.1v0.1c0,0.8-0.5,19.8,21.3,23.8
		c8.5,1.5,17.6,0.7,26.3-2.5c3.2-1.2,6.3-2.7,9-4.3c1-0.6,2-1.1,2.9-1.8c1.6-1.1,2.9-2.4,4.4-3.9c2.7-2.6,5.3-5.2,7.8-7.8
		c1.7-1.7,3.4-3.5,5.1-5.2c0.1-0.1,0.4-0.4,0.9-0.9c0.6-0.6,1.3-1.3,1.8-2C144.8,157.3,134.9,149.1,131.1,138.1z"/>
	<path class="st5" d="M134.5,237.9v37.4c0,14.4,11.7,26.1,26.1,26.1c14.4,0,26.1-11.7,26.1-26.1V238c-8.4,2-17.1,3-26,3
		C151.7,241,142.9,239.9,134.5,237.9z M144.6,262.5c-3.5,0-6.3-2.8-6.3-6.3c0-3.5,2.8-6.3,6.3-6.3s6.3,2.8,6.3,6.3
		S148.1,262.5,144.6,262.5z M176.8,249.9c3.5,0,6.3,2.8,6.3,6.3s-2.8,6.3-6.3,6.3s-6.3-2.8-6.3-6.3S173.3,249.9,176.8,249.9z
		 M167,256.2c0,3.5-2.8,6.3-6.3,6.3s-6.3-2.8-6.3-6.3s2.8-6.3,6.3-6.3C164.2,249.9,167,252.7,167,256.2z"/>
	<path class="st5" d="M176.8,257.5c0.7,0,1.3-0.6,1.3-1.3c0-0.7-0.6-1.3-1.3-1.3c-0.7,0-1.3,0.6-1.3,1.3
		C175.5,256.9,176.1,257.5,176.8,257.5z"/>
	<path class="st5" d="M159.4,256.2c0,0.7,0.6,1.3,1.3,1.3s1.3-0.6,1.3-1.3s-0.6-1.3-1.3-1.3S159.4,255.5,159.4,256.2z"/>
	<path class="st5" d="M144.6,254.9c-0.7,0-1.3,0.6-1.3,1.3c0,0.7,0.6,1.3,1.3,1.3c0.7,0,1.3-0.6,1.3-1.3S145.3,254.9,144.6,254.9z"
		/>
	<path class="st5" d="M160.6,96.6c3.1,0,6,0.5,8.8,1.3c0.1-1.9,0.1-4.3,0.2-7.2c0.2-7.2,3.8-11.8,7.7-16.7l1-1.2
		c0.6-0.7,1.3-1.4,1.9-2c2.4-2.4,5.1-4.3,8.2-6.3c1.3-0.9,2.7-1.7,4-2.5c1.2-0.8,2.5-1.6,4-2.3c0.4-0.1,0.9-0.3,1.3-0.5
		c0.3-0.2,0.8-0.3,1.1-0.5c-0.2-0.3-0.5-0.7-0.7-1.2c-0.7-1.3-1.9-2.4-3.2-3.6c-1.1-1.2-2.4-2.3-3.9-3.5c-2.6-2.1-5.4-4.2-8.3-6.1
		c-2.2-1.5-4.6-2.9-6.8-4.3c-0.3-0.2-0.6-0.4-1-0.6c-0.6-0.3-1.1-0.6-1.6-0.9l-0.2-0.1c-0.7-0.4-17.2-9.9-31.1,7.4
		c-5.5,6.8-9,15.1-10.3,24.3c-0.4,2.9-0.6,6.1-0.5,9.9l0.3,3.5c0.2,1.8,0.7,3.7,1.3,5.6c1.7,5.9,3.5,11.7,5.1,17.3
		C143.6,100.4,151.7,96.6,160.6,96.6z"/>
	<path class="st5" d="M183.7,115.6l-0.2-0.1l-0.5-0.9c-2.9-4.9-7.1-8.7-12.1-10.8l-1.5-0.6v-0.1c-2.7-1-5.7-1.5-8.7-1.5
		c-14.4,0-26.1,11.7-26.1,26.1c0,14.4,11.7,26.1,26.1,26.1c0.3,0,0.6,0,0.9,0l0.9-0.1c5.8-0.5,11.1-2.7,15.4-6.4l0.7-0.6
		c5-4.8,8.2-11.5,8.1-18.9C186.7,123.4,185.6,119.2,183.7,115.6z"/>
	<path class="st5" d="M242.5,154.7c-2.7-8.2-7.8-15.8-14.7-21.9c-2.7-2.3-5.4-4.2-8-5.8c-1.1-0.7-2-1.3-2.9-1.7l-0.1-0.1
		c-1.7-0.9-3.6-1.4-5.5-2c-2.9-0.8-5.8-1.7-8.7-2.5c-2.9-0.9-5.9-1.7-8.8-2.6l-0.2-0.1c-0.3-0.1-1.9-0.6-3.5-1
		c1.2,3.3,1.8,6.8,1.8,10.5c0,8.2-3.2,15.6-8.4,21.2c1.3,0.9,3.4,2.4,6.5,4.5c6,3.9,7.8,9.6,9.8,15.6l0.4,1.3
		c0.3,0.9,0.6,1.8,0.7,2.8c0.6,3.5,0.7,6.9,0.7,10.2c0,0.8-0.1,1.6-0.1,2.4c0,0.7,0,1.5,0,2.2c0,1.5,0,3.1-0.2,4.7
		c0,0.4-0.1,0.8-0.2,1.3c0,0.3-0.2,0.9-0.2,1.3h1.5c1.3,0.2,2.7-0.2,4.2-0.5l0.5-0.1c1.8-0.4,3.4-0.9,4.9-1.4
		c3.8-1.2,6.8-2.4,9.6-3.6c2.4-1,4.9-2.1,7.3-3.3c0.5-0.2,0.9-0.5,1.4-0.7c0.5-0.3,1-0.5,1.5-0.8
		C232.6,184.3,249.5,175.7,242.5,154.7z"/>
	<path class="st5" d="M269,127.7C269,68,220.4,19.4,160.7,19.4S52.4,68,52.4,127.7C52.4,187.4,101,236,160.7,236
		S269,187.4,269,127.7z M232.9,189.3c-0.5,0.3-1,0.5-1.5,0.8c-2.5,1.3-5,2.4-7.5,3.5c-2.9,1.3-6.1,2.5-10,3.8
		c-1.6,0.6-3.4,1.1-5.4,1.6l-0.6,0.1c-1.4,0.3-3,0.7-4.7,0.7c-0.3,0-0.7,0-1,0h-1.8c-1.3,0-2.5-0.6-3.3-1.7c-1.5-2-1-4.2-0.7-5.6
		c0.1-0.3,0.2-0.6,0.2-0.9c0.2-1.3,0.2-2.7,0.2-4c0-0.8,0.1-1.6,0.1-2.4c0-0.7,0-1.5,0-2.2c0-3-0.1-6.2-0.7-9.3v-0.1
		c-0.1-0.6-0.3-1.2-0.5-1.8l-0.5-1.4c-1.9-5.6-3.3-10.1-7.9-13.1c-3.4-2.3-5.9-4.1-7.5-5.2c-4.5,3.5-9.9,5.7-15.8,6.3
		c-1.5,1.5-4,4.1-5.3,5.5c-0.5,0.5-0.9,0.9-1,1c-1.7,1.7-3.4,3.5-5.1,5.2c-2.5,2.5-5.1,5.2-7.8,7.8c-1.5,1.6-3.1,3.2-5,4.5
		c-1.1,0.8-2.2,1.4-3.2,2c-3,1.8-6.3,3.4-9.8,4.7c-9.6,3.5-19.6,4.4-28.9,2.7c-25.3-4.7-25.4-27.2-25.4-28.9c0-1.1,0-2.2,0.1-3.4
		c0.1-2.7,0.3-5.5,0.5-8.1c0.3-3.4,0.7-6.9,1.4-10.7c0.3-1.7,0.7-3.5,1.3-5.5l0.1-0.2c0.5-1.8,1.1-3.9,2.2-5.7
		c0.2-0.4,0.5-1,0.8-1.5c0.5-1,1.6-1.8,2.9-2.1H82c2.4-0.3,4.1,1.2,5.2,2.2c0.2,0.2,0.5,0.4,0.7,0.6c0.9,0.7,2.1,1.3,3.4,2l0.1,0.1
		c0.6,0.4,1.3,0.7,1.9,1.1c0.7,0.4,1.3,0.8,2,1.2l0.5,0.3c2.6,1.3,5.3,2.7,8,3.6h0.1c0.6,0.3,1.2,0.4,1.8,0.5h0.1l1.7,0.3
		c5.7,1,10.2,1.8,14.9-0.7l1-0.5c2.7-1.4,4.9-2.5,6.5-3.3c-0.4-1.9-0.5-3.6-0.5-5.4c0-6,1.6-11.7,4.8-16.7c-0.4-1.1-0.6-2.1-0.8-2.6
		l-0.1-0.4c-1.8-5.8-3.6-11.7-5.3-17.6c-0.6-2.1-1.3-4.3-1.5-6.6l-0.3-3.8c-0.1-4.1,0-7.6,0.5-10.8c1.4-10,5.3-19.3,11.3-26.7
		c16-19.9,35.7-9.5,37.4-8.6c0.7,0.4,1.3,0.7,1.9,1.1c0.4,0.2,0.7,0.4,1,0.6c2.4,1.4,4.8,2.9,7.1,4.4c3.1,2.1,6,4.2,8.7,6.4
		c1.6,1.3,3,2.5,4.3,3.8c1.4,1.3,3,2.8,4.1,4.9c0.1,0.3,0.3,0.5,0.5,0.8c0.1,0.2,0.3,0.4,0.4,0.6c0.7,1.1,0.8,2.6,0.3,3.8
		c-0.8,2.2-2.9,3-4.2,3.5c-0.3,0.1-0.6,0.3-0.9,0.4c-1.2,0.5-2.3,1.2-3.4,2l-0.1,0.1c-1.3,0.8-2.6,1.5-3.8,2.4
		c-2.9,1.9-5.4,3.6-7.5,5.7c-0.5,0.6-1.1,1.1-1.5,1.6l-1,1.2c-3.7,4.5-6.5,8.1-6.6,13.6c0,3.1-0.1,5.7-0.2,7.7c0,0.5,0,1,0,1.4
		c5.2,2.5,9.5,6.5,12.6,11.4c0.9,0.2,1.9,0.5,2.9,0.8c3.4,1,4.7,1.3,5.2,1.5c2.9,0.8,5.8,1.7,8.7,2.5c2.9,0.8,5.8,1.7,8.7,2.5
		c2.1,0.7,4.2,1.3,6.3,2.4c1.1,0.5,2.2,1.1,3.4,1.9c2.8,1.7,5.7,3.8,8.7,6.3c7.7,6.7,13.3,15.1,16.2,24.1
		c8.3,24.6-12.2,35.3-12.9,35.3C233.8,188.8,233.4,189.1,232.9,189.3z"/>
	<path class="st6" d="M247.2,153.3c-2.9-9-8.5-17.4-16.2-24.1c-3-2.5-5.9-4.6-8.7-6.3c-1.2-0.8-2.3-1.4-3.4-1.9
		c-2.1-1.1-4.2-1.7-6.3-2.4c-2.9-0.8-5.8-1.7-8.7-2.5c-2.9-0.8-5.8-1.7-8.7-2.5c-0.5-0.2-1.8-0.5-5.2-1.5c-1-0.3-2-0.6-2.9-0.8
		c-3.1-4.9-7.4-8.9-12.6-11.4c0-0.4,0-0.9,0-1.4c0.1-2,0.2-4.6,0.2-7.7c0.1-5.5,2.9-9.1,6.6-13.6l1-1.2c0.4-0.5,1-1,1.5-1.6
		c2.1-2.1,4.6-3.8,7.5-5.7c1.2-0.9,2.5-1.6,3.8-2.4l0.1-0.1c1.1-0.8,2.2-1.5,3.4-2c0.3-0.1,0.6-0.3,0.9-0.4c1.3-0.5,3.4-1.3,4.2-3.5
		c0.5-1.2,0.4-2.7-0.3-3.8c-0.1-0.2-0.3-0.4-0.4-0.6c-0.2-0.3-0.4-0.5-0.5-0.8c-1.1-2.1-2.7-3.6-4.1-4.9c-1.3-1.3-2.7-2.5-4.3-3.8
		c-2.7-2.2-5.6-4.3-8.7-6.4c-2.3-1.5-4.7-3-7.1-4.4c-0.3-0.2-0.6-0.4-1-0.6c-0.6-0.4-1.2-0.7-1.9-1.1C173.7,33,154,22.6,138,42.5
		c-6,7.4-9.9,16.7-11.3,26.7c-0.5,3.2-0.6,6.7-0.5,10.8l0.3,3.8c0.2,2.3,0.9,4.5,1.5,6.6c1.7,5.9,3.5,11.8,5.3,17.6l0.1,0.4
		c0.2,0.5,0.4,1.5,0.8,2.6c-3.2,5-4.8,10.7-4.8,16.7c0,1.8,0.1,3.5,0.5,5.4c-1.6,0.8-3.8,1.9-6.5,3.3l-1,0.5
		c-4.7,2.5-9.2,1.7-14.9,0.7l-1.7-0.3h-0.1c-0.6-0.1-1.2-0.2-1.8-0.5h-0.1c-2.7-0.9-5.4-2.3-8-3.6l-0.5-0.3c-0.7-0.4-1.3-0.8-2-1.2
		c-0.6-0.4-1.3-0.7-1.9-1.1l-0.1-0.1c-1.3-0.7-2.5-1.3-3.4-2c-0.2-0.2-0.5-0.4-0.7-0.6c-1.1-1-2.8-2.5-5.2-2.2h-0.2
		c-1.3,0.3-2.4,1.1-2.9,2.1c-0.3,0.5-0.6,1.1-0.8,1.5c-1.1,1.8-1.7,3.9-2.2,5.7l-0.1,0.2c-0.6,2-1,3.8-1.3,5.5
		c-0.7,3.8-1.1,7.3-1.4,10.7c-0.2,2.6-0.4,5.4-0.5,8.1c-0.1,1.2-0.1,2.3-0.1,3.4c0,1.7,0.1,24.2,25.4,28.9
		c9.3,1.7,19.3,0.8,28.9-2.7c3.5-1.3,6.8-2.9,9.8-4.7c1-0.6,2.1-1.2,3.2-2c1.9-1.3,3.5-2.9,5-4.5c2.7-2.6,5.3-5.3,7.8-7.8
		c1.7-1.7,3.4-3.5,5.1-5.2c0.1-0.1,0.5-0.5,1-1c1.3-1.4,3.8-4,5.3-5.5c5.9-0.6,11.3-2.8,15.8-6.3c1.6,1.1,4.1,2.9,7.5,5.2
		c4.6,3,6,7.5,7.9,13.1l0.5,1.4c0.2,0.6,0.4,1.2,0.5,1.8v0.1c0.6,3.1,0.7,6.3,0.7,9.3c0,0.7,0,1.5,0,2.2c0,0.8-0.1,1.6-0.1,2.4
		c0,1.3,0,2.7-0.2,4c0,0.3-0.1,0.6-0.2,0.9c-0.3,1.4-0.8,3.6,0.7,5.6c0.8,1.1,2,1.7,3.3,1.7h1.8c0.3,0,0.7,0,1,0
		c1.7,0,3.3-0.4,4.7-0.7l0.6-0.1c2-0.5,3.8-1,5.4-1.6c3.9-1.3,7.1-2.5,10-3.8c2.5-1.1,5-2.2,7.5-3.5c0.5-0.3,1-0.5,1.5-0.8
		c0.5-0.2,0.9-0.5,1.4-0.7C235,188.6,255.5,177.9,247.2,153.3z M132.8,89.1c-0.6-1.9-1.1-3.8-1.3-5.6l-0.3-3.5
		c-0.1-3.8,0.1-7,0.5-9.9c1.3-9.2,4.8-17.5,10.3-24.3c13.9-17.3,30.4-7.8,31.1-7.4l0.2,0.1c0.5,0.3,1,0.6,1.6,0.9
		c0.4,0.2,0.7,0.4,1,0.6c2.2,1.4,4.6,2.8,6.8,4.3c2.9,1.9,5.7,4,8.3,6.1c1.5,1.2,2.8,2.3,3.9,3.5c1.3,1.2,2.5,2.3,3.2,3.6
		c0.2,0.5,0.5,0.9,0.7,1.2c-0.3,0.2-0.8,0.3-1.1,0.5c-0.4,0.2-0.9,0.4-1.3,0.5c-1.5,0.7-2.8,1.5-4,2.3c-1.3,0.8-2.7,1.6-4,2.5
		c-3.1,2-5.8,3.9-8.2,6.3c-0.6,0.6-1.3,1.3-1.9,2l-1,1.2c-3.9,4.9-7.5,9.5-7.7,16.7c-0.1,2.9-0.1,5.3-0.2,7.2
		c-2.8-0.8-5.7-1.3-8.8-1.3c-8.9,0-17,3.8-22.7,9.8C136.3,100.8,134.5,95,132.8,89.1z M154.8,160.7c-0.5,0.5-0.8,0.8-0.9,0.9
		c-1.7,1.7-3.4,3.5-5.1,5.2c-2.5,2.6-5.1,5.2-7.8,7.8c-1.5,1.5-2.8,2.8-4.4,3.9c-0.9,0.7-1.9,1.2-2.9,1.8c-2.7,1.6-5.8,3.1-9,4.3
		c-8.7,3.2-17.8,4-26.3,2.5c-21.8-4-21.3-23-21.3-23.8v-0.1c0-1.1,0-2.1,0.1-3.1V160c0.1-2.6,0.3-5.4,0.5-8
		c0.3-3.2,0.7-6.5,1.4-10.2c0.3-1.6,0.6-3.2,1.1-5l0.1-0.2c0.4-1.6,0.9-3.2,1.7-4.4c0.2-0.4,0.4-0.7,0.6-1.1
		c0.3,0.2,0.7,0.6,0.9,0.8c0.3,0.3,0.7,0.6,1.1,0.9c1.2,0.9,2.6,1.6,3.9,2.3c0.7,0.4,1.3,0.8,2,1.2c0.6,0.4,1.3,0.7,1.9,1.1l0.8,0.4
		c2.8,1.4,5.7,2.9,8.7,3.9c0.9,0.3,1.9,0.6,2.8,0.7l1.6,0.3c6.1,1.1,11.9,2.1,18.1-1.2l1-0.5c2.2-1.1,4.2-2.1,5.7-2.9
		c3.8,11,13.7,19.2,25.5,20.6C156.1,159.4,155.4,160.1,154.8,160.7z M178.6,146.7l-0.7,0.6c-4.3,3.7-9.6,5.9-15.4,6.4l-0.9,0.1
		c-0.3,0-0.6,0-0.9,0c-14.4,0-26.1-11.7-26.1-26.1c0-14.4,11.7-26.1,26.1-26.1c3,0,6,0.5,8.7,1.5v0.1l1.5,0.6
		c5,2.1,9.2,5.9,12.1,10.8l0.5,0.9l0.2,0.1c1.9,3.6,3,7.8,3,12.2C186.8,135.2,183.6,141.9,178.6,146.7z M231.8,184.6
		c-0.5,0.3-1,0.5-1.5,0.8c-0.5,0.2-0.9,0.5-1.4,0.7c-2.4,1.2-4.9,2.3-7.3,3.3c-2.8,1.2-5.8,2.4-9.6,3.6c-1.5,0.5-3.1,1-4.9,1.4
		l-0.5,0.1c-1.5,0.3-2.9,0.7-4.2,0.5h-1.5c0-0.4,0.2-1,0.2-1.3c0.1-0.5,0.2-0.9,0.2-1.3c0.2-1.6,0.2-3.2,0.2-4.7c0-0.7,0-1.5,0-2.2
		c0-0.8,0.1-1.6,0.1-2.4c0-3.3-0.1-6.7-0.7-10.2c-0.1-1-0.4-1.9-0.7-2.8l-0.4-1.3c-2-6-3.8-11.7-9.8-15.6c-3.1-2.1-5.2-3.6-6.5-4.5
		c5.2-5.6,8.4-13,8.4-21.2c0-3.7-0.6-7.2-1.8-10.5c1.6,0.4,3.2,0.9,3.5,1l0.2,0.1c2.9,0.9,5.9,1.7,8.8,2.6c2.9,0.8,5.8,1.7,8.7,2.5
		c1.9,0.6,3.8,1.1,5.5,2l0.1,0.1c0.9,0.4,1.8,1,2.9,1.7c2.6,1.6,5.3,3.5,8,5.8c6.9,6.1,12,13.7,14.7,21.9
		C249.5,175.7,232.6,184.3,231.8,184.6z"/>
	<path class="st6" d="M274,127.7c0-62.5-50.8-113.3-113.3-113.3S47.4,65.2,47.4,127.7c0,51.7,34.7,95.3,82.1,108.9v38.7
		c0,17.1,14,31.1,31.1,31.1c17.1,0,31.1-14,31.1-31.1v-38.6c5.3-1.5,10.5-3.4,15.5-5.7v42.6c-1.9,0.9-3.3,2.9-3.3,5.2
		c0,3.2,2.6,5.8,5.8,5.8s5.8-2.6,5.8-5.8c0-2.3-1.4-4.3-3.3-5.2v-45C248.9,209.8,274,171.6,274,127.7z M186.7,275.3
		c0,14.4-11.7,26.1-26.1,26.1c-14.4,0-26.1-11.7-26.1-26.1v-37.4c8.4,2,17.2,3.1,26.2,3.1c8.9,0,17.6-1,26-3V275.3z M209.7,279.6
		c-0.4,0-0.8-0.4-0.8-0.8c0-0.4,0.4-0.8,0.8-0.8s0.8,0.4,0.8,0.8C210.5,279.2,210.1,279.6,209.7,279.6z M160.7,236
		C101,236,52.4,187.4,52.4,127.7C52.4,68,101,19.4,160.7,19.4S269,68,269,127.7C269,187.4,220.4,236,160.7,236z"/>
	<path class="st6" d="M144.6,249.9c-3.5,0-6.3,2.8-6.3,6.3c0,3.5,2.8,6.3,6.3,6.3s6.3-2.8,6.3-6.3S148.1,249.9,144.6,249.9z
		 M144.6,257.5c-0.7,0-1.3-0.6-1.3-1.3c0-0.7,0.6-1.3,1.3-1.3c0.7,0,1.3,0.6,1.3,1.3S145.3,257.5,144.6,257.5z"/>
	<path class="st6" d="M154.4,256.2c0,3.5,2.8,6.3,6.3,6.3s6.3-2.8,6.3-6.3s-2.8-6.3-6.3-6.3C157.2,249.9,154.4,252.7,154.4,256.2z
		 M162,256.2c0,0.7-0.6,1.3-1.3,1.3s-1.3-0.6-1.3-1.3c0-0.7,0.6-1.3,1.3-1.3S162,255.5,162,256.2z"/>
	<path class="st6" d="M176.8,262.5c3.5,0,6.3-2.8,6.3-6.3s-2.8-6.3-6.3-6.3s-6.3,2.8-6.3,6.3S173.3,262.5,176.8,262.5z M176.8,254.9
		c0.7,0,1.3,0.6,1.3,1.3c0,0.7-0.6,1.3-1.3,1.3c-0.7,0-1.3-0.6-1.3-1.3C175.5,255.5,176.1,254.9,176.8,254.9z"/>
	<path class="st7" d="M209.7,278c-0.4,0-0.8,0.4-0.8,0.8c0,0.4,0.4,0.8,0.8,0.8s0.8-0.4,0.8-0.8C210.5,278.4,210.1,278,209.7,278z"
		/>
</g>
<g id="iron_smoother" class="st0">
	<g class="st2">
		<path class="st8" d="M48.1,292.2c0-105.6,72.6-180.9,182.9-211.3"/>
		<path class="st8" d="M236.4,292.2c0-38.4,14.6-65.7,36.9-76.8"/>
		<line class="st8" x1="229.7" y1="78.8" x2="272" y2="218.3"/>
		<line class="st8" x1="49.1" y1="289.8" x2="237" y2="289.8"/>
		<line class="st8" x1="49.1" y1="274.5" x2="237" y2="274.5"/>
		<path class="st8" d="M212.1,131.8c6.3,8.9-19.9,62.9-25.8,66.9c-6.5,4.5-65.5,21.1-71.8,12.2c-6.3-8.9,20-36.5,37.5-50.5
			C169.6,146.3,205.8,122.8,212.1,131.8z"/>
		<path class="st8" d="M172.8,204.8l-1.6-7c-0.4-1.7-2.1-2.8-3.8-2.4l-30.6,6.8c-1.7,0.4-2.8,2.1-2.4,3.8l1.2,5.6"/>
		<path class="st8" d="M83.9,176.5l-24.1,20c-1.3,1.1-1.5,3.1-0.4,4.5l6.2,7.2"/>
		<path class="st8" d="M202.7,90.9l3.7-28.2c0.1-1-0.2-1.8-0.7-1.9L192.3,59c-0.5-0.1-1.1,0.7-1.2,1.6L186,96.7"/>
		<path class="st8" d="M195,59.1c5-29.8,30.2-30.6,31.8-30.6"/>
		<path class="st8" d="M202.2,61.1c4.2-24,22.4-25.1,24.5-25.1"/>
	</g>
</g>
<g id="Cooker" class="st0">
	<g class="st2">
		<path class="st8" d="M276.9,295.7H44.5c-10.9,0-19.8-8.9-19.8-19.8V55.4c0-10.9,8.9-19.8,19.8-19.8h232.4
			c10.9,0,19.8,8.9,19.8,19.8v220.5C296.7,286.8,287.8,295.7,276.9,295.7z"/>
		<path class="st8" d="M267.3,111.6H54.1c-1.6,0-2.9-1.3-2.9-2.9v-5.6c0-1.6,1.3-2.9,2.9-2.9h213.2c1.6,0,2.9,1.3,2.9,2.9v5.6
			C270.2,110.2,268.9,111.6,267.3,111.6z"/>
		<path class="st8" d="M272.6,231.5H48.8c-5,0-9.1-4.1-9.1-9.1V95.8c0-5,4.1-9.1,9.1-9.1h223.9c5,0,9.1,4.1,9.1,9.1v126.5
			C281.7,227.4,277.6,231.5,272.6,231.5z"/>
		<path class="st8" d="M277.6,279.5H43.8c-2.3,0-4.1-1.9-4.1-4.1v-21.7c0-2.3,1.9-4.1,4.1-4.1h233.7c2.3,0,4.1,1.9,4.1,4.1v21.7
			C281.7,277.6,279.8,279.5,277.6,279.5z"/>
		<g>
			<circle class="st8" cx="272.8" cy="61.8" r="7.6"/>
			<circle class="st8" cx="240.6" cy="61.8" r="7.6"/>
		</g>
		<g>
			<circle class="st8" cx="201.1" cy="61.8" r="7.6"/>
			<circle class="st8" cx="168.9" cy="61.8" r="7.6"/>
		</g>
		<g>
			<circle class="st8" cx="128.2" cy="61.8" r="7.6"/>
			<circle class="st8" cx="95.9" cy="61.8" r="7.6"/>
		</g>
		<path class="st8" d="M74.9,69.5H41c-0.7,0-1.3-0.6-1.3-1.3V55.6c0-0.7,0.6-1.3,1.3-1.3h33.9c0.7,0,1.3,0.6,1.3,1.3v12.6
			C76.2,68.9,75.6,69.5,74.9,69.5z"/>
		<g>
			<line class="st8" x1="66.5" y1="60.6" x2="66.5" y2="63.1"/>
			<line class="st8" x1="58" y1="60.6" x2="58" y2="63.1"/>
			<line class="st8" x1="49.4" y1="60.6" x2="49.4" y2="63.1"/>
		</g>
		<g>
			<g>
				<polyline class="st8" points="265.4,27.5 275.7,27.5 275.7,35.7 				"/>
				<line class="st8" x1="275.7" y1="27.5" x2="265.4" y2="27.5"/>
			</g>
			<g>
				<polyline class="st8" points="254,27.5 243.7,27.5 243.7,35.7 				"/>
				<line class="st8" x1="243.7" y1="27.5" x2="254" y2="27.5"/>
			</g>
			<line class="st8" x1="259.7" y1="25" x2="259.7" y2="34.4"/>
		</g>
		<g>
			<g>
				<polyline class="st8" points="205,27.5 215.4,27.5 215.4,35.7 				"/>
				<line class="st8" x1="215.4" y1="27.5" x2="196.3" y2="27.5"/>
			</g>
			<g>
				<polyline class="st8" points="164.9,27.5 154.6,27.5 154.6,35.7 				"/>
				<line class="st8" x1="154.6" y1="27.5" x2="173.6" y2="27.5"/>
			</g>
			<line class="st8" x1="185" y1="25" x2="185" y2="34.4"/>
		</g>
		<g>
			<g>
				<polyline class="st8" points="115.9,27.5 126.3,27.5 126.3,35.7 				"/>
				<line class="st8" x1="126.3" y1="27.5" x2="115.9" y2="27.5"/>
			</g>
			<g>
				<polyline class="st8" points="104.6,27.5 94.3,27.5 94.3,35.7 				"/>
				<line class="st8" x1="94.3" y1="27.5" x2="104.6" y2="27.5"/>
			</g>
			<line class="st8" x1="110.3" y1="25" x2="110.3" y2="34.4"/>
		</g>
	</g>
</g>
<g id="bed" class="st0">
	<g class="st2">
		<g>
			<g>
				<path class="st8" d="M174,68c0,8.8-12.4,56.7-13.3,56.7c-0.9,0-13.3-47.9-13.3-56.7s5.9-16,13.3-16C168,52,174,59.2,174,68z"/>
				<path class="st8" d="M128.9,75.5c6.4,6.3,32.4,48.7,31.8,49.2c-0.6,0.6-44.1-24.7-50.5-31s-7.4-15.4-2.2-20.5
					C113.1,68.2,122.5,69.2,128.9,75.5z"/>
				<path class="st8" d="M102.5,111.8c9.1,0,58.2,12.1,58.2,12.9s-49.1,12.9-58.2,12.9s-16.4-5.8-16.4-12.9
					C86.1,117.6,93.4,111.8,102.5,111.8z"/>
			</g>
			<path class="st8" d="M192.5,75.5c-6.4,6.3-32.4,48.7-31.8,49.2c0.6,0.6,44.1-24.7,50.5-31c6.4-6.3,7.4-15.4,2.2-20.5
				C208.3,68.2,198.9,69.2,192.5,75.5z"/>
			<path class="st8" d="M218.9,111.8c-9.1,0-58.2,12.1-58.2,12.9s49.1,12.9,58.2,12.9s16.4-5.8,16.4-12.9
				C235.3,117.6,228,111.8,218.9,111.8z"/>
		</g>
		<path class="st8" d="M297.6,295.5H23.8v-68.1c0-3.2,2.6-5.8,5.8-5.8h262.1c3.2,0,5.8,2.6,5.8,5.8v68.1H297.6z"/>
		<path class="st8" d="M293.1,221.7H28.3v-17.2c0-3.2,2.6-5.8,5.8-5.8h253.1c3.2,0,5.8,2.6,5.8,5.8v17.2H293.1z"/>
		<g>
			<path class="st8" d="M180.2,198.7c0,0,0-2.1,0-4.7v-18.5c0-2.6,2.5-4.7,5.6-4.7h72c3.1,0,5.6,2.1,5.6,4.7V194c0,2.6,0,4.7,0,4.7"
				/>
			<path class="st8" d="M58,198.7c0,0,0-2.1,0-4.7v-18.5c0-2.6,2.5-4.7,5.6-4.7h72c3.1,0,5.6,2.1,5.6,4.7V194c0,2.6,0,4.7,0,4.7"/>
			<path class="st8" d="M63.6,198.7"/>
			<path class="st8" d="M141.2,191.3c0,4.1,0,7.4,0,7.4"/>
		</g>
		<path class="st8" d="M285.6,198.7c0-80.1-55.9-173.5-124.9-173.5S35.8,118.5,35.8,198.7"/>
	</g>
</g>
<g id="shoes_Closet" class="st0">
	<path class="st9" d="M267,304.4H54.4c-11,0-20.1-9-20.1-20.1v-248c0-11,9-20.1,20.1-20.1H267c11,0,20.1,9,20.1,20.1v248
		C287.1,295.4,278.1,304.4,267,304.4z"/>
	<path class="st9" d="M119.4,54.1H84.7c-1.8,0-3.3-1.5-3.3-3.3v-2.4c0-1.8,1.5-3.3,3.3-3.3h34.6c1.8,0,3.3,1.5,3.3,3.3v2.4
		C122.7,52.6,121.2,54.1,119.4,54.1z"/>
	<path class="st9" d="M138.7,111.8h-34.6c-1.8,0-3.3-1.5-3.3-3.3v-2.4c0-1.8,1.5-3.3,3.3-3.3h34.6c1.8,0,3.3,1.5,3.3,3.3v2.4
		C142.1,110.3,140.6,111.8,138.7,111.8z"/>
	<g class="st2">
		<path class="st8" d="M236.6,54.1H202c-1.8,0-3.3-1.5-3.3-3.3v-2.4c0-1.8,1.5-3.3,3.3-3.3h34.6c1.8,0,3.3,1.5,3.3,3.3v2.4
			C240,52.6,238.5,54.1,236.6,54.1z"/>
		<path class="st8" d="M268.6,68.8H170c-1.8,0-3.3-1.5-3.3-3.3V33.7c0-1.8,1.5-3.3,3.3-3.3h98.6c1.8,0,3.3,1.5,3.3,3.3v31.7
			C272,67.3,270.5,68.8,268.6,68.8z"/>
	</g>
	<path class="st9" d="M151.3,68.8H52.8c-1.8,0-3.3-1.5-3.3-3.3V33.7c0-1.8,1.5-3.3,3.3-3.3h98.6c1.8,0,3.3,1.5,3.3,3.3v31.7
		C154.7,67.3,153.2,68.8,151.3,68.8z"/>
	<g class="st2">
		<path class="st8" d="M217.6,111.8H183c-1.8,0-3.3-1.5-3.3-3.3v-2.4c0-1.8,1.5-3.3,3.3-3.3h34.6c1.8,0,3.3,1.5,3.3,3.3v2.4
			C220.9,110.3,219.4,111.8,217.6,111.8z"/>
		<path class="st8" d="M268.8,266.8h-99c-1.7,0-3.1-1.4-3.1-3.1V91.9c0-1.7,1.4-3.1,3.1-3.1h99c1.7,0,3.1,1.4,3.1,3.1v171.8
			C271.9,265.4,270.5,266.8,268.8,266.8z"/>
	</g>
	<path class="st9" d="M151.5,266.8h-99c-1.7,0-3.1-1.4-3.1-3.1V91.9c0-1.7,1.4-3.1,3.1-3.1h99c1.7,0,3.1,1.4,3.1,3.1v171.8
		C154.7,265.4,153.3,266.8,151.5,266.8z"/>
	<line class="st9" x1="34.3" y1="284.5" x2="287.1" y2="284.5"/>
	<path class="st10" d="M129.8,123.6H74.3c-3.2,0-5.7,2.3-5.7,5.1v120.9c0,2.8,2.6,5.1,5.7,5.1h55.5c3.2,0,5.7-2.3,5.7-5.1v-121
		C135.6,125.8,133,123.6,129.8,123.6z M130.2,132.7v3.7l-2.1-1.9L130.2,132.7z M130.2,145.5v3.7l-2.1-1.9L130.2,145.5z M127.5,128.3
		l-3.3,2.9l-3.3-2.9H127.5z M124.3,137.9l3.5,3.1l-3.5,3.1l-3.5-3.1L124.3,137.9z M124.2,150.8l3.5,3.1l-3.5,3.1l-3.5-3.1
		L124.2,150.8z M112.9,128.3l-3.3,2.9l-3.3-2.9H112.9z M109.7,137.9l3.5,3.1l-3.5,3.1l-3.5-3.1L109.7,137.9z M109.7,163.6l3.5,3.1
		l-3.5,3.1l-3.5-3.1L109.7,163.6z M98.4,128.3l-3.3,2.9l-3.3-2.9H98.4z M95.1,176.5l3.5,3.1l-3.5,3.1l-3.5-3.1L95.1,176.5z
		 M83.8,128.3l-3.2,2.9l-3.2-2.9H83.8z M80.5,137.9L84,141l-3.5,3.1L77,141L80.5,137.9z M73.9,183.6l2.8,2.4l-2.8,2.4V183.6z
		 M73.9,196.5l2.8,2.4l-2.8,2.4V196.5z M74.3,249.8c-0.2,0-0.4-0.1-0.4-0.3v-1.6l2.2,1.9l0,0L74.3,249.8L74.3,249.8z M73.9,239.9
		V235l2.7,2.4L73.9,239.9z M73.9,227v-4.9l2.8,2.4L73.9,227z M73.9,214.2v-4.9l2.8,2.4L73.9,214.2z M73.9,175.6v-5l2.8,2.5
		L73.9,175.6z M73.9,162.8v-5l2.8,2.5L73.9,162.8z M73.9,149.9v-5l2.8,2.5L73.9,149.9z M73.9,137v-4.9l2.8,2.5L73.9,137z
		 M80.5,246.9l-3.5-3.1l3.5-3.1l3.5,3.1L80.5,246.9z M76.9,230.9l3.5-3.1l0.1,0.1l3.4,3.1l-3.5,3.1L77,231L76.9,230.9z M80.5,221.2
		l-3.5-3.1l3.5-3.1l3.5,3.1L80.5,221.2z M80.5,208.4l-3.5-3.1l3.5-3.1l3.5,3.1L80.5,208.4z M80.5,195.5l-3.5-3.1l3.5-3.1l3.5,3.1
		L80.5,195.5z M80.6,182.6l-3.5-3.1l3.5-3.1l3.5,3.1L80.6,182.6z M77.1,166.7l3.5-3.1l3.5,3.1l-3.5,3.1L77.1,166.7z M80.6,156.9
		l-3.5-3.1l3.5-3.1l3.5,3.1L80.6,156.9z M84.8,249.8l2.9-2.6l2.9,2.6H84.8z M87.8,240.5l-3.5-3.1l3.5-3.1l3.5,3.1L87.8,240.5z
		 M87.8,227.7l-3.6-3.2l3.5-3.1l3.6,3.2L87.8,227.7z M87.8,214.8l-3.5-3.1l3.5-3.1l3.5,3.1L87.8,214.8z M87.8,202l-3.5-3.1l3.5-3.1
		l3.5,3.1L87.8,202z M87.8,189.1l-3.5-3.1l3.5-3.1l3.5,3.1L87.8,189.1z M87.8,176.2l-3.5-3.1l3.5-3.1l3.5,3.1L87.8,176.2z
		 M87.8,163.3l-3.5-3.1l3.5-3.1l3.5,3.1L87.8,163.3z M87.8,150.5l-3.5-3.1l3.5-3.1l3.5,3.1L87.8,150.5z M87.8,137.6l-3.5-3.1
		l3.5-3.1l3.5,3.1L87.8,137.6z M95,247l-3.5-3.1l3.5-3.1l3.5,3.1L95,247z M95,234.1l-3.5-3.1l3.5-3.1l3.5,3.1L95,234.1z M95,221.2
		l-3.6-3.2l3.5-3.1l3.6,3.2L95,221.2z M95.1,208.4l-3.5-3.1l3.5-3.1l3.5,3.1L95.1,208.4z M95.1,195.5l-3.5-3.1l3.5-3.1l3.5,3.1
		L95.1,195.5z M95.1,169.8l-3.5-3.1l3.5-3.1l3.5,3.1L95.1,169.8z M91.6,153.9l3.5-3.1l3.5,3.1l-3.5,3.1L91.6,153.9z M95.1,144.1
		l-3.5-3.1l3.5-3.1l3.5,3.1L95.1,144.1z M98.7,211.6l3.5-3.1l0.1,0.1l3.5,3.1l-3.5,3.1l-3.5-3.1L98.7,211.6z M102.3,221.5l3.5,3.1
		l-3.5,3.1l-3.5-3.1L102.3,221.5z M99.4,249.8l2.9-2.6l2.9,2.6H99.4z M102.3,240.5l-3.5-3.1l3.5-3.1l3.5,3.1L102.3,240.5z
		 M102.4,201.9L102.4,201.9l-3.5-3.1l3.5-3.1l3.5,3.1L102.4,201.9z M102.4,189.1l-3.5-3.1l3.5-3.1l3.5,3.1L102.4,189.1z
		 M102.4,176.2l-3.5-3.1l3.5-3.1l3.5,3.1L102.4,176.2z M102.4,163.3l-3.5-3.1l3.5-3.1l3.5,3.1L102.4,163.3z M102.4,150.5l-3.5-3.1
		l3.5-3.1l3.5,3.1L102.4,150.5z M102.4,137.6l-3.5-3.1l3.5-3.1l3.5,3.1L102.4,137.6z M109.6,246.9l-3.5-3.1l3.5-3.1l3.5,3.1
		L109.6,246.9z M106.1,218.2l3.5-3.1l3.5,3.1l-3.5,3.1L106.1,218.2z M109.6,234.1l-3.5-3.1l3.5-3.1l3.5,3.1L109.6,234.1z
		 M109.7,208.3l-3.4-3.1l0,0l-0.1-0.1l3.5-3.1l0.1,0.1l0,0l3.4,3.1L109.7,208.3z M109.7,195.5L109.7,195.5l-3.5-3.1l3.5-3.1l3.5,3.1
		l0,0L109.7,195.5z M109.7,182.6l-3.5-3.1l3.5-3.1l3.5,3.1L109.7,182.6z M109.7,156.9l-3.5-3.1l3.5-3.1l3.5,3.1L109.7,156.9z
		 M114,249.8l3-2.6l2.9,2.6H114z M116.9,240.5l-3.5-3.1l3.5-3.1l3.5,3.1L116.9,240.5z M113.4,198.7l3.5-3.1l0.1,0.1l0,0l3.4,3.1
		l-3.5,3.1l-3.5-3.1V198.7z M116.9,227.7l-3.5-3.1l3.5-3.1l3.5,3.1L116.9,227.7z M117,214.8l-3.5-3.1l3.5-3.1l3.5,3.1L117,214.8z
		 M117,189.1L117,189.1l-3.5-3.1l3.5-3.1l3.5,3.1l0,0L117,189.1z M117,176.2l-3.5-3.1l3.5-3.1l3.5,3.1L117,176.2z M117,163.3
		l-3.5-3.1l3.5-3.1l3.5,3.1L117,163.3z M117,150.5l-3.5-3.1l3.5-3.1l3.5,3.1L117,150.5z M117,137.6l-3.5-3.1l3.5-3.1l3.5,3.1
		L117,137.6z M124.2,247l-3.5-3.1l3.5-3.1l3.5,3.1L124.2,247z M120.7,231l3.5-3.1l3.5,3.1l-3.5,3.1L120.7,231z M124.2,221.2
		l-3.5-3.1l3.5-3.1l3.5,3.1L124.2,221.2z M124.2,208.3l-3.5-3.1l3.5-3.1l3.5,3.1L124.2,208.3z M124.2,195.5l-3.5-3.1l0,0l-0.1-0.1
		l3.5-3.1l3.6,3.2L124.2,195.5z M124.3,182.6l-3.5-3.1l3.5-3.1l3.5,3.1L124.3,182.6z M124.3,169.8l-3.5-3.1l3.5-3.1l3.5,3.1
		L124.3,169.8z M130.2,249.5c0,0.2-0.2,0.3-0.4,0.3h-1.3l1.6-1.5L130.2,249.5L130.2,249.5z M130.2,239.4l-2.2-1.9l2.2-1.9V239.4z
		 M130.2,226.4l-2.1-1.9l2.1-1.9V226.4z M130.2,213.6l-2.1-1.9l2.1-1.9V213.6z M130.2,200.7l-2.1-1.9l2.1-1.9V200.7z M130.2,187.9
		l-2.1-1.9l-0.1-0.1l2.2-2V187.9z M130.2,175l-2.1-1.9l2.1-1.9V175z M130.2,162.1l-2.1-1.9l2.1-1.9V162.1z"/>
	<g class="st2">
		<path class="st11" d="M185.8,128.7v120.9c0,2.8,2.6,5.1,5.7,5.1H247c3.2,0,5.7-2.3,5.7-5.1V128.7c0-2.8-2.6-5.1-5.7-5.1h-55.5
			C188.4,123.6,185.8,125.9,185.8,128.7z"/>
		<polygon class="st11" points="201.5,237.5 205,240.6 208.5,237.5 205,234.4 		"/>
		<polygon class="st11" points="202.1,249.9 207.9,249.9 205,247.3 		"/>
		<polygon class="st11" points="208.5,198.9 205,195.9 201.6,198.9 205,202 		"/>
		<polygon class="st11" points="201.4,224.5 205,227.7 208.5,224.6 204.9,221.5 		"/>
		<polygon class="st11" points="201.3,153.9 197.8,150.8 194.3,153.9 197.8,157 		"/>
		<polygon class="st11" points="208.5,211.8 205,208.7 201.6,211.8 205,214.9 		"/>
		<polygon class="st11" points="201.2,205.4 197.8,202.3 194.3,205.4 197.8,208.4 		"/>
		<polygon class="st11" points="194.3,166.7 197.8,169.8 201.3,166.8 197.8,163.7 		"/>
		<polygon class="st11" points="201.2,218.2 197.8,215.2 194.3,218.2 197.8,221.3 		"/>
		<polygon class="st11" points="201.3,179.6 197.8,176.5 194.3,179.6 197.8,182.7 		"/>
		<polygon class="st11" points="201.2,192.5 197.8,189.4 194.3,192.5 197.8,195.6 		"/>
		<polygon class="st11" points="215.8,231.1 212.3,228 208.8,231.1 212.3,234.1 		"/>
		<polygon class="st11" points="208.6,186 205.1,183 201.6,186 205.1,189.1 		"/>
		<polygon class="st11" points="208.7,218.1 212.3,221.3 215.8,218.2 212.2,215 		"/>
		<polygon class="st11" points="194.1,231 194.3,231.1 197.7,234.1 201.2,231.1 197.8,228 197.6,227.9 		"/>
		<polygon class="st11" points="215.9,192.5 212.4,189.4 208.9,192.5 212.4,195.5 		"/>
		<polygon class="st11" points="215.9,166.7 212.4,163.7 208.9,166.7 212.4,169.8 		"/>
		<polygon class="st11" points="215.8,205.4 212.3,202.3 208.8,205.4 212.3,208.4 		"/>
		<polygon class="st11" points="208.6,160.3 205.1,157.3 201.6,160.3 205.1,163.4 		"/>
		<polygon class="st11" points="208.8,243.9 212.3,247 215.8,243.9 212.3,240.9 		"/>
		<polygon class="st11" points="208.6,173.2 205.1,170.1 201.6,173.2 205.1,176.3 		"/>
		<polygon class="st11" points="208.6,134.6 205.1,131.5 201.6,134.6 205.1,137.7 		"/>
		<polygon class="st11" points="208.6,147.5 205.1,144.4 201.6,147.5 205.1,150.5 		"/>
		<polygon class="st11" points="191.2,183.7 191.2,188.5 193.9,186.1 		"/>
		<polygon class="st11" points="215.6,128.4 209.1,128.4 212.4,131.3 		"/>
		<polygon class="st11" points="223.5,166.7 226.9,169.8 230.4,166.7 226.9,163.7 		"/>
		<polygon class="st11" points="201,128.4 194.6,128.4 197.8,131.2 		"/>
		<polygon class="st11" points="208.9,179.6 212.4,182.7 215.8,179.6 212.4,176.5 		"/>
		<polygon class="st11" points="230.4,141 226.9,138 223.5,141 226.9,144.1 		"/>
		<polygon class="st11" points="244.8,128.4 238.2,128.4 241.5,131.2 		"/>
		<polygon class="st11" points="201.3,141 197.8,138 194.3,141 197.8,144.1 		"/>
		<polygon class="st11" points="245,141 241.5,138 238,141 241.5,144.1 		"/>
		<polygon class="st11" points="230.2,128.4 223.7,128.4 226.9,131.2 		"/>
		<polygon class="st11" points="238,153.9 241.5,157 245,153.9 241.5,150.8 		"/>
		<path class="st11" d="M191.2,249.6c0,0.2,0.2,0.3,0.4,0.3h1.8l0,0l-2.2-1.9V249.6z"/>
		<polygon class="st11" points="194,160.3 191.2,157.8 191.2,162.8 		"/>
		<polygon class="st11" points="194,211.8 191.2,209.4 191.2,214.2 		"/>
		<polygon class="st11" points="194,173.2 191.2,170.7 191.2,175.7 		"/>
		<polygon class="st11" points="194,134.6 191.2,132.1 191.2,137.1 		"/>
		<polygon class="st11" points="194,147.5 191.2,145 191.2,149.9 		"/>
		<polygon class="st11" points="193.9,224.7 191.2,222.2 191.2,227.1 		"/>
		<polygon class="st11" points="194.3,243.9 197.7,247 201.2,243.9 197.7,240.9 		"/>
		<polygon class="st11" points="191.2,196.5 191.2,201.4 193.9,198.9 		"/>
		<polygon class="st11" points="208.9,153.9 212.4,157 215.8,153.9 212.4,150.8 		"/>
		<polygon class="st11" points="193.9,237.5 191.2,235.1 191.2,239.9 		"/>
		<polygon class="st11" points="245,166.7 241.5,163.7 238,166.7 241.5,169.8 		"/>
		<polygon class="st11" points="245,218.2 241.5,215.1 238,218.2 241.5,221.2 		"/>
		<polygon class="st11" points="245,205.3 241.5,202.2 238,205.3 241.5,208.4 		"/>
		<polygon class="st11" points="237.9,192.3 238,192.4 238,192.5 241.5,195.5 245,192.4 241.4,189.3 		"/>
		<polygon class="st11" points="237.9,231.1 241.4,234.1 244.9,231.1 241.4,228 		"/>
		<polygon class="st11" points="245,179.6 241.5,176.5 238,179.6 241.5,182.7 		"/>
		<polygon class="st11" points="237.9,243.9 241.4,247 244.9,243.9 241.4,240.9 		"/>
		<polygon class="st11" points="237.7,160.3 234.2,157.2 230.7,160.3 234.2,163.4 		"/>
		<polygon class="st11" points="237.7,173.2 234.2,170.1 230.8,173.2 234.2,176.3 		"/>
		<polygon class="st11" points="237.7,147.5 234.2,144.4 230.7,147.5 234.2,150.5 		"/>
		<polygon class="st11" points="237.7,134.6 234.2,131.5 230.8,134.6 234.2,137.7 		"/>
		<path class="st11" d="M245.8,249.9h1.3c0.2,0,0.4-0.1,0.4-0.3v-1.1L245.8,249.9z"/>
		<polygon class="st11" points="215.9,141 212.4,138 208.9,141 212.4,144.1 		"/>
		<polygon class="st11" points="247.4,149.3 247.4,145.6 245.3,147.5 		"/>
		<polygon class="st11" points="247.4,175 247.4,171.3 245.3,173.2 		"/>
		<polygon class="st11" points="247.4,162.2 247.4,158.5 245.3,160.3 		"/>
		<polygon class="st11" points="237.7,186 237.7,186 234.2,183 230.8,186 234.2,189.1 234.2,189.1 		"/>
		<polygon class="st11" points="245.2,237.5 247.4,239.4 247.4,235.6 		"/>
		<polygon class="st11" points="247.4,213.6 247.4,209.9 245.3,211.7 		"/>
		<polygon class="st11" points="247.4,226.5 247.4,222.7 245.3,224.6 		"/>
		<polygon class="st11" points="245.2,185.9 245.3,186 247.4,187.9 247.4,184 		"/>
		<polygon class="st11" points="247.4,200.7 247.4,197 245.3,198.9 		"/>
		<polygon class="st11" points="247.4,136.5 247.4,132.7 245.3,134.6 		"/>
		<polygon class="st11" points="223.1,173.2 219.7,170.1 216.2,173.2 219.7,176.2 		"/>
		<polygon class="st11" points="223.1,198.9 219.7,195.8 216.2,198.9 219.6,202 219.7,202 		"/>
		<polygon class="st11" points="223.1,186 219.7,183 216.2,186 219.7,189.1 		"/>
		<polygon class="st11" points="223.1,160.3 219.7,157.3 216.2,160.3 219.7,163.4 		"/>
		<polygon class="st11" points="223.1,147.5 219.7,144.4 216.2,147.5 219.7,150.5 		"/>
		<polygon class="st11" points="216.1,237.5 219.6,240.6 223.1,237.5 219.6,234.4 		"/>
		<polygon class="st11" points="237.7,211.7 234.2,208.7 230.7,211.7 234.2,214.8 		"/>
		<polygon class="st11" points="216,211.7 216.1,211.8 219.6,214.8 223.1,211.8 219.6,208.7 219.5,208.6 		"/>
		<polygon class="st11" points="223.1,134.6 219.7,131.5 216.2,134.6 219.7,137.7 		"/>
		<polygon class="st11" points="216.1,224.6 219.6,227.7 223.1,224.6 219.6,221.6 		"/>
		<polygon class="st11" points="216.7,249.9 222.5,249.9 219.6,247.3 		"/>
		<polygon class="st11" points="230.4,153.9 226.9,150.8 223.5,153.9 226.9,157 		"/>
		<polygon class="st11" points="230.6,198.8 230.7,198.9 234.2,201.9 237.7,198.9 234.2,195.8 234.2,195.8 234.1,195.7 		"/>
		<polygon class="st11" points="231.2,249.9 237.1,249.9 234.2,247.3 		"/>
		<polygon class="st11" points="230.7,237.5 234.1,240.6 237.6,237.5 234.2,234.4 		"/>
		<polygon class="st11" points="223.4,243.9 226.9,247 230.3,243.9 226.9,240.9 		"/>
		<polygon class="st11" points="237.6,224.6 234.2,221.6 230.7,224.6 234.2,227.7 		"/>
		<polygon class="st11" points="223.3,205.2 223.4,205.3 223.5,205.3 226.9,208.4 230.4,205.3 226.9,202.2 226.9,202.2 226.8,202.1 
					"/>
		<polygon class="st11" points="230.3,231.1 226.9,228 223.4,231.1 226.9,234.1 		"/>
		<polygon class="st11" points="223.4,218.2 226.9,221.3 230.3,218.2 226.9,215.1 		"/>
		<polygon class="st11" points="230.4,192.5 230.4,192.5 226.9,189.4 223.5,192.5 226.9,195.5 226.9,195.5 		"/>
		<polygon class="st11" points="230.4,179.6 226.9,176.5 223.5,179.6 227,182.7 		"/>
	</g>
</g>
<g id="kettle" class="st0">
	<g class="st2">
		<path class="st8" d="M68,294.3c0-96.4,51.7-174.5,115.5-174.5S299,197.9,299,294.3H68z"/>
		<line class="st8" x1="68" y1="278.1" x2="298.5" y2="278.1"/>
		<line class="st8" x1="131" y1="138.8" x2="235.4" y2="138.8"/>
		<path class="st8" d="M82.6,204.9l-37.5-18c-1.1-0.5-1.6-1.9-1.1-3.1l11.8-24.6c0.5-1.1,1.9-1.6,3.1-1.1l37.5,18"/>
		<line class="st8" x1="53.2" y1="191" x2="67" y2="162.2"/>
		<circle class="st8" cx="36.8" cy="165.3" r="14.4"/>
		<circle class="st8" cx="183.5" cy="105.4" r="14.4"/>
		<path class="st8" d="M118.3,150.2c-15.5-22.5-18.8-52.5-6.2-78.9c18.8-39.4,66-56,105.4-37.2s56,66,37.2,105.4
			c-1.8,3.8-3.9,7.3-6.2,10.7"/>
	</g>
</g>
<g id="fredge" class="st0">
	<g id="Layer_4" class="st2">
	</g>
	<g class="st2">
		<path class="st8" d="M244.4,283.1H77c-9.4,0-17-7.7-17-17v-226c0-9.4,7.7-17,17-17h167.3c9.4,0,17,7.7,17,17v226
			C261.4,275.5,253.7,283.1,244.4,283.1z"/>
		<line class="st8" x1="261.4" y1="82.5" x2="60" y2="82.5"/>
		<line class="st8" x1="261.4" y1="94.5" x2="60" y2="94.5"/>
		<line class="st8" x1="261.4" y1="218.5" x2="60" y2="218.5"/>
		<line class="st8" x1="261.4" y1="230.5" x2="60" y2="230.5"/>
		<path class="st8" d="M60,105.3c0,0,19.2,0,22.5,0c8.2,0,5.3-5.9,10.6-9c2.6-1.5,10.2-1.9,10.2-1.9"/>
		<path class="st8" d="M200.6,230.5c-8.5,0-20.3,4.9-23.3,6.1c-3.8,1.6-7.4,4.5-16.6,4.5s-12.8-2.9-16.6-4.5
			c-3-1.3-14.7-6.1-23.3-6.1"/>
		<path class="st8" d="M160.7,263.7"/>
		<path class="st8" d="M160.7,281.7"/>
		<g>
			<path class="st8" d="M239.5,283.6v4.1c0,0.9-0.7,1.7-1.7,1.7h-12.7c-0.9,0-1.7-0.7-1.7-1.7v-4.1"/>
			<circle class="st8" cx="231.5" cy="294.1" r="3.4"/>
		</g>
		<g>
			<path class="st8" d="M97.7,283.4v4.1c0,0.9-0.7,1.7-1.7,1.7H83.4c-0.9,0-1.7-0.7-1.7-1.7v-4.1"/>
			<circle class="st8" cx="89.7" cy="293.9" r="3.4"/>
		</g>
		<path class="st8" d="M244,45.8h-17c-1.6,0-2.8-1.3-2.8-2.8v-2.7c0-1.6,1.3-2.8,2.8-2.8h17c1.6,0,2.8,1.3,2.8,2.8V43
			C246.9,44.5,245.6,45.8,244,45.8z"/>
	</g>
</g>
<g id="image_frame" class="st0">
	<path class="st12" d="M373.7-229.3"/>
	<path class="st12" d="M353.9-236.7"/>
	<g class="st2">
		<rect x="62.2" y="30.3" class="st8" width="197.1" height="260"/>
		<rect x="94.8" y="62.5" class="st8" width="131.8" height="195.6"/>
		<line class="st8" x1="226.6" y1="156.2" x2="192.9" y2="122.4"/>
		<line class="st8" x1="194.4" y1="120.5" x2="94.5" y2="220.4"/>
		<line class="st8" x1="142" y1="173.8" x2="124.7" y2="156.5"/>
		<line class="st8" x1="126.5" y1="154.8" x2="95.3" y2="186.1"/>
		<path class="st8" d="M165.5,149.4c0.9-2.8,0.9-4,0.9-7.2c0-16.8-13.6-30.4-30.4-30.4s-30.4,13.6-30.4,30.4
			c0,9.2,3.9,17.2,10.3,22.8"/>
	</g>
	<path class="st12" d="M402.7-250.7"/>
</g>
<g id="chair" class="st0">
	<g class="st2">
		<path class="st8" d="M251.8,160.5"/>
		<path class="st8" d="M246.9,76.7"/>
		<path class="st8" d="M183.7,37.3"/>
		<path class="st8" d="M69.6,160.5"/>
		<path class="st8" d="M74.5,76.7"/>
		<path class="st8" d="M137.7,37.3"/>
		<path class="st8" d="M185.3,38.6c25.3,21.4,31.3,19.3,54.3,34.6"/>
		<path class="st8" d="M239.3,72.9c5.8,3.9,11.3,8.1,16,13.2c4.5,5,8,10.8,9.4,17.4c1.5,7.1,0.4,14-1.7,20.8
			c-1.7,5.6-3.7,11.2-5.6,16.8c-1.7,5-3.5,10.1-4.8,15.2c-0.3,1.3-0.8,2.7-0.8,4.1"/>
		<path class="st8" d="M236.8,177.1c0-8.2,6.7-14.9,14.9-14.9s14.9,6.7,14.9,14.9"/>
		<line class="st8" x1="236.8" y1="200.7" x2="236.8" y2="177.1"/>
		<polyline class="st8" points="266.7,177.1 266.7,230.1 236.8,230.1 		"/>
		<path class="st8" d="M160.8,230.1"/>
		<line class="st8" x1="236.8" y1="230.1" x2="208.4" y2="230.1"/>
		<path class="st8" d="M107.7,226.1"/>
		<polyline class="st8" points="240.6,230.1 237.4,290.5 229.5,290.5 225.8,230.1 		"/>
		<path class="st8" d="M91.1,106.4"/>
		<path class="st8" d="M160.8,78.7c38.5,0,68.5,11.6,69.7,27.4"/>
		<path class="st8" d="M230.4,105.8c1.2,10.4,0.5,24.8-16.2,47.5"/>
		<path class="st8" d="M214.8,152.3c-3.4,4.9-11.2,12.3-35.3,12.3"/>
		<path class="st8" d="M135.9,38.6c6.5-5.3,14.7-8.5,23.8-8.5h2c9,0,17.3,3.2,23.8,8.5"/>
		<path class="st8" d="M136,38.6C110.7,60,104.7,57.9,81.7,73.2"/>
		<path class="st8" d="M82.1,72.9c-5.8,3.9-11.3,8.1-16,13.2c-4.5,5-8,10.8-9.4,17.4c-1.5,7.1-0.4,14,1.7,20.8
			c1.7,5.6,3.7,11.2,5.6,16.8c1.7,5,3.5,10.1,4.8,15.2c0.3,1.3,0.8,2.7,0.8,4.1"/>
		<path class="st8" d="M84.6,177.1c0-8.2-6.7-14.9-14.9-14.9s-14.9,6.7-14.9,14.9"/>
		<line class="st8" x1="84.6" y1="200.7" x2="84.6" y2="177.1"/>
		<polyline class="st8" points="54.7,177.1 54.7,230.1 84.6,230.1 		"/>
		<polyline class="st8" points="82.2,200.3 160.6,200.3 160.8,200.3 239.2,200.3 		"/>
		<path class="st8" d="M160.6,230.1"/>
		<line class="st8" x1="84.4" y1="230.1" x2="113" y2="230.1"/>
		<path class="st8" d="M84.6,200.3c0-9.2,34-16.7,76-16.7h0.3c42,0,76,7.5,76,16.7"/>
		<path class="st8" d="M112.6,230.1c26.9,0,31.5,15.7,48,15.7h0.1c16.5,0,21.1-15.7,48-15.7"/>
		<polyline class="st8" points="80.8,230.1 84,290.5 91.9,290.5 95.6,230.1 		"/>
		<path class="st8" d="M160.9,78.7c-38.5,0-68.5,11.6-69.7,27.4"/>
		<path class="st8" d="M91,105.8c-1.2,10.4-0.5,24.8,16.2,47.5"/>
		<path class="st8" d="M106.6,152.3c3.4,4.9,11.2,12.3,35.3,12.3"/>
		<path class="st8" d="M141.8,164.6c9.2,0,8.4,7.6,18.8,7.6h0.2c10.4,0,9.5-7.6,18.8-7.6"/>
	</g>
</g>
<g id="Wash_machine" class="st0">
	<g class="st2">
		<path class="st8" d="M244.3,287.6H77c-9.4,0-17-7.7-17-17v-226c0-9.4,7.7-17,17-17h167.3c9.4,0,17,7.7,17,17v226
			C261.4,279.9,253.7,287.6,244.3,287.6z"/>
		<path class="st8" d="M166.8,275.1"/>
		<path class="st8" d="M166.8,293.1"/>
		<line class="st8" x1="60" y1="58" x2="261.4" y2="58"/>
		<g>
			<line class="st8" x1="60" y1="110.3" x2="261.4" y2="110.3"/>
			<line class="st8" x1="60" y1="271.3" x2="261.4" y2="271.3"/>
		</g>
		<circle class="st8" cx="229.2" cy="83.1" r="11"/>
		<line class="st8" x1="227.6" y1="86.1" x2="230.7" y2="80.2"/>
		<g>
			<line class="st8" x1="186.9" y1="75.8" x2="186.9" y2="90.5"/>
			<line class="st8" x1="164.3" y1="75.8" x2="164.3" y2="90.5"/>
			<line class="st8" x1="175.6" y1="75.8" x2="175.6" y2="90.5"/>
		</g>
		<path class="st8" d="M127.4,97.8H77.7c-3.1,0-5.7-2.6-5.7-5.7V75.3c0-3.1,2.6-5.7,5.7-5.7h49.7c3.1,0,5.7,2.6,5.7,5.7v16.8
			C133.1,95.2,130.5,97.8,127.4,97.8z"/>
		<line class="st8" x1="72" y1="79.5" x2="133.1" y2="79.5"/>
		<circle class="st8" cx="160.7" cy="190.8" r="58"/>
		<path class="st8" d="M140,190.8c0-11.4,9.3-20.7,20.7-20.7"/>
		<path class="st8" d="M195.5,195.3c0,19.2-15.6,30.3-34.8,30.3s-34.8-15.6-34.8-34.8s15.6-34.8,34.8-34.8
			c19.5,0,34.8,14.3,34.8,30.3"/>
		<polyline class="st8" points="195.5,183.8 182.6,183.8 182.6,197.8 194.7,197.8 		"/>
	</g>
</g>
<g id="home_sweet_home" class="st0">
	<g id="Layer_16" class="st2">
	</g>
	<g class="st2">
		<path class="st13" d="M-416.4-251.2c-2.3-2.3-6.7-2.3-7.4,1.7c-1.6,9.1-5.7,16.8-12.5,23c-2.3,2.1-0.8,6.1,2.5,6.7
			c7.1,1.2,10.9,0.5,14.8-5.8c4.2-6.8,7.4-14.1,10.2-21.5C-407.1-251.8-413.4-254.2-416.4-251.2z"/>
		<g>
			<path class="st3" d="M-470.6-304.1c-0.1,1.4-0.5,2.4-1.2,3s-1.5,1-2.5,1.2s-2,0.2-3.2,0.1c-1.1-0.1-2.1-0.2-3.1-0.2
				s-1.7-0.3-1.9-0.8c-0.2-0.5-0.4-1.1-0.4-1.8c-0.1-0.6-0.2-1.2-0.3-1.8c-0.2-0.5-0.7-0.8-1.6-0.8c-0.5,0-0.8,0.3-0.9,0.9
				s-0.2,1.1-0.2,1.6c0,1-0.4,1.8-1.3,2.2c-0.9,0.4-2,0.7-3.3,0.8c-1.3,0.1-2.6,0.1-4,0s-2.6-0.1-3.7-0.1c-0.3,0-0.6-0.1-0.9-0.3
				c-0.3-0.2-0.5-0.5-0.7-0.9c-0.2-0.3-0.4-0.7-0.5-1.1s-0.2-0.6-0.2-0.9c0-2.1,0-4.7,0-7.7s0-6.2,0-9.6s0-6.9,0-10.4s0-6.9,0-10.1
				s0-6.1,0-8.8c0-2.6,0-4.8,0.1-6.4c0-0.9,0.2-1.4,0.5-1.7c0.3-0.2,0.7-0.3,1.2-0.3c1.6,0,3.1-0.1,4.6-0.2s3.1-0.2,4.7-0.2
				c0.8,0,1.4,0.4,1.6,1.2c0.3,0.8,0.4,1.8,0.4,2.8c0,0.4,0,1.2,0,2.5s0,2.6,0.1,3.9s0.2,2.4,0.5,3.2c0.2,0.9,0.6,1.1,1.1,0.6
				c1.9,0,3.6,0.6,5.3,1.7c1.6,1.1,3.1,2.6,4.4,4.6c1.3,1.9,2.4,4.2,3.3,6.8s1.7,5.3,2.2,8.3s0.8,6,0.8,9.2
				C-469.8-310.2-470-307.1-470.6-304.1z"/>
			<path class="st3" d="M-452.4-349.3c2.2,0,4.2,0.5,6.1,1.4s3.6,2.2,5,4c1.4,1.7,2.6,3.9,3.4,6.3c0.9,2.5,1.3,5.3,1.3,8.4
				c0,3-0.4,5.9-1.3,8.7c-0.9,2.8-2,5.3-3.6,7.5c-1.5,2.2-3.3,3.9-5.4,5.3c-2.1,1.3-4.4,2-6.9,2c-2.1,0-4-0.5-5.8-1.6
				s-3.3-2.6-4.6-4.5c-1.3-1.9-2.3-4.1-3-6.7c-0.7-2.5-1.1-5.3-1.1-8.2c0-2.3,0.4-4.8,1.1-7.5c0.8-2.6,1.8-5.1,3.2-7.3
				c1.3-2.2,3-4,4.9-5.5C-457-348.6-454.8-349.3-452.4-349.3z M-455.5-328.8c0,0.9,0.3,1.7,0.9,2.3c0.6,0.6,1.3,0.9,2.2,0.9
				c0.9,0,1.6-0.3,2.3-0.9s0.9-1.4,0.9-2.3s-0.3-1.7-0.9-2.4c-0.6-0.6-1.4-1-2.3-1s-1.6,0.3-2.2,1
				C-455.2-330.5-455.5-329.7-455.5-328.8z"/>
			<path class="st3" d="M-387.7-306.2c-0.2,0.5-0.6,0.9-1.2,1.1c-0.7,0.2-1.4,0.3-2.3,0.4s-1.7,0-2.6-0.1s-1.5-0.2-2-0.3
				c-0.5-0.2-0.8-0.7-0.9-1.4c-0.1-0.8-0.2-1.5-0.3-2.4c-0.1-0.8-0.2-1.6-0.3-2.3c-0.2-0.7-0.5-1-1.1-1c-0.5,0-0.9,0.3-1.1,0.8
				s-0.4,1.2-0.5,1.9c-0.1,0.7-0.2,1.4-0.3,2.1c-0.1,0.7-0.2,1.2-0.5,1.6s-0.9,0.7-1.8,0.9c-1,0.2-2,0.3-3.1,0.3s-2.1-0.1-3-0.2
				s-1.5-0.3-1.8-0.6c-0.4-0.4-0.7-1-0.7-1.7s-0.1-1.4-0.2-2.1s-0.2-1.3-0.3-1.8c-0.2-0.5-0.5-0.7-1-0.7c-0.7,0-1.2,0.4-1.4,1.1
				c-0.3,0.7-0.5,1.5-0.7,2.4s-0.5,1.7-0.8,2.4c-0.3,0.7-0.9,1.1-1.8,1.1c-1.6,0-3.1,0-4.6,0s-3,0-4.7,0c-2.1,0-3.5-0.4-4.4-1.2
				c-0.9-0.8-1.3-2.3-1.3-4.3c0-6.2,0.1-12.2,0.2-18s0.2-11.8,0.2-18c0-1.1,0.2-2.2,0.6-3.3c0.4-1.1,0.9-1.6,1.5-1.6c2,0,4,0,6,0
				s4,0.1,6,0.2c0.5,0.1,0.8,0.2,1.1,0.4c0.3,0.2,0.4,0.5,0.5,0.9s0.2,0.8,0.3,1.3c0.1,0.5,0.2,1,0.3,1.6c0.5-1.6,1.3-2.7,2.5-3.4
				c1.2-0.7,2.5-1.1,3.9-1.1s2.7,0.3,4,1.1c1.3,0.7,2.2,1.7,2.8,3c1-0.8,2.1-1.7,3.2-2.6s2.2-1.4,3.3-1.4c2.4,0,4.3,1,5.7,3
				c1.4,2,2.5,4.5,3.2,7.5s1.2,6.4,1.3,10c0.1,3.6,0.1,7.1-0.1,10.4s-0.4,6.3-0.8,8.8C-387.2-308.8-387.5-307-387.7-306.2z"/>
			<path class="st3" d="M-354.6-322.8c0.1,0.4,0.3,0.9,0.5,1.6c0.2,0.6,0.5,1,0.9,1s0.8-0.3,1.2-0.9c0.4-0.6,0.9-0.9,1.4-0.9
				c0.4,0,0.7,0.4,1.1,1.3s0.7,1.8,0.9,3c0.3,1.1,0.5,2.2,0.7,3.3c0.2,1.1,0.3,1.9,0.3,2.3c0,1-0.6,1.9-1.7,2.8s-2.5,1.6-4,2.2
				s-3.1,1.1-4.7,1.5s-2.8,0.6-3.6,0.6c-2.1,0-4.3-0.4-6.7-1.1c-2.3-0.7-4.4-1.9-6.3-3.5s-3.5-3.7-4.7-6.1c-1.2-2.5-1.9-5.5-1.9-9.1
				c0-3.5,0.5-6.8,1.6-10s2.6-6,4.4-8.4s3.9-4.4,6.3-5.8c2.3-1.5,4.7-2.2,7.2-2.2c2,0,3.8,0.6,5.4,1.7s3,2.6,4.1,4.5
				c1.1,1.8,2,3.9,2.6,6.2c0.6,2.3,0.9,4.5,0.9,6.8c0,1-0.1,2.1-0.4,3.2s-0.7,2.1-1.2,3s-1.1,1.7-1.9,2.3
				C-353-323.1-353.8-322.8-354.6-322.8z M-359.7-334.6c0.3,0,0.6-0.1,0.9-0.4s0.4-0.7,0.4-1.3c0-0.8-0.2-1.5-0.5-1.9
				s-0.7-0.6-1.1-0.7c-0.4,0-0.8,0.2-1.1,0.5c-0.3,0.4-0.5,1-0.5,1.8c0,0.4,0.2,0.8,0.5,1.2C-360.7-334.9-360.3-334.6-359.7-334.6z"
				/>
			<path class="st3" d="M-470.6-117.4c-0.1,1.4-0.5,2.4-1.2,3s-1.5,1-2.5,1.2s-2,0.2-3.2,0.1c-1.1-0.1-2.1-0.2-3.1-0.2
				s-1.7-0.3-1.9-0.8c-0.2-0.5-0.4-1.1-0.4-1.8c-0.1-0.6-0.2-1.2-0.3-1.8c-0.2-0.5-0.7-0.8-1.6-0.8c-0.5,0-0.8,0.3-0.9,0.9
				s-0.2,1.1-0.2,1.6c0,1-0.4,1.8-1.3,2.2c-0.9,0.4-2,0.7-3.3,0.8c-1.3,0.1-2.6,0.1-4,0s-2.6-0.1-3.7-0.1c-0.3,0-0.6-0.1-0.9-0.3
				c-0.3-0.2-0.5-0.5-0.7-0.9c-0.2-0.3-0.4-0.7-0.5-1.1s-0.2-0.6-0.2-0.9c0-2.1,0-4.7,0-7.7s0-6.2,0-9.6c0-3.4,0-6.9,0-10.4
				s0-6.9,0-10.1c0-3.2,0-6.1,0-8.8c0-2.6,0-4.8,0.1-6.4c0-0.9,0.2-1.4,0.5-1.7c0.3-0.2,0.7-0.3,1.2-0.3c1.6,0,3.1-0.1,4.6-0.2
				c1.5-0.1,3.1-0.2,4.7-0.2c0.8,0,1.4,0.4,1.6,1.2c0.3,0.8,0.4,1.8,0.4,2.8c0,0.4,0,1.2,0,2.5s0,2.6,0.1,3.9
				c0.1,1.3,0.2,2.4,0.5,3.2c0.2,0.9,0.6,1.1,1.1,0.6c1.9,0,3.6,0.6,5.3,1.7c1.6,1.1,3.1,2.6,4.4,4.6c1.3,1.9,2.4,4.2,3.3,6.8
				s1.7,5.3,2.2,8.3s0.8,6,0.8,9.2C-469.8-123.5-470-120.4-470.6-117.4z"/>
			<path class="st3" d="M-452.4-162.6c2.2,0,4.2,0.5,6.1,1.4s3.6,2.2,5,4c1.4,1.7,2.6,3.9,3.4,6.3s1.3,5.3,1.3,8.4
				c0,3-0.4,5.9-1.3,8.7s-2,5.3-3.6,7.5c-1.5,2.2-3.3,3.9-5.4,5.3c-2.1,1.3-4.4,2-6.9,2c-2.1,0-4-0.5-5.8-1.6s-3.3-2.6-4.6-4.5
				c-1.3-1.9-2.3-4.1-3-6.7c-0.7-2.5-1.1-5.3-1.1-8.2c0-2.3,0.4-4.8,1.1-7.5c0.8-2.6,1.8-5.1,3.2-7.3c1.3-2.2,3-4,4.9-5.5
				C-457-161.9-454.8-162.6-452.4-162.6z M-455.5-142.1c0,0.9,0.3,1.7,0.9,2.3s1.3,0.9,2.2,0.9c0.9,0,1.6-0.3,2.3-0.9
				s0.9-1.4,0.9-2.3s-0.3-1.7-0.9-2.4c-0.6-0.6-1.4-1-2.3-1s-1.6,0.3-2.2,1S-455.5-143-455.5-142.1z"/>
			<path class="st3" d="M-387.7-119.5c-0.2,0.5-0.6,0.9-1.2,1.1c-0.7,0.2-1.4,0.3-2.3,0.4s-1.7,0-2.6-0.1s-1.5-0.2-2-0.3
				c-0.5-0.2-0.8-0.7-0.9-1.4c-0.1-0.8-0.2-1.5-0.3-2.4c-0.1-0.8-0.2-1.6-0.3-2.3c-0.2-0.7-0.5-1-1.1-1c-0.5,0-0.9,0.3-1.1,0.8
				s-0.4,1.2-0.5,1.9c-0.1,0.7-0.2,1.4-0.3,2.1c-0.1,0.7-0.2,1.2-0.5,1.6s-0.9,0.7-1.8,0.9c-1,0.2-2,0.3-3.1,0.3s-2.1-0.1-3-0.2
				s-1.5-0.3-1.8-0.6c-0.4-0.4-0.7-1-0.7-1.7c-0.1-0.7-0.1-1.4-0.2-2.1s-0.2-1.3-0.3-1.8c-0.2-0.5-0.5-0.7-1-0.7
				c-0.7,0-1.2,0.4-1.4,1.1c-0.3,0.7-0.5,1.5-0.7,2.4s-0.5,1.7-0.8,2.4c-0.3,0.7-0.9,1.1-1.8,1.1c-1.6,0-3.1,0-4.6,0s-3,0-4.7,0
				c-2.1,0-3.5-0.4-4.4-1.2c-0.9-0.8-1.3-2.3-1.3-4.3c0-6.2,0.1-12.2,0.2-18s0.2-11.8,0.2-18c0-1.1,0.2-2.2,0.6-3.3s0.9-1.6,1.5-1.6
				c2,0,4,0,6,0s4,0.1,6,0.2c0.5,0.1,0.8,0.2,1.1,0.4c0.3,0.2,0.4,0.5,0.5,0.9s0.2,0.8,0.3,1.3c0.1,0.5,0.2,1,0.3,1.6
				c0.5-1.6,1.3-2.7,2.5-3.4s2.5-1.1,3.9-1.1s2.7,0.3,4,1.1c1.3,0.7,2.2,1.7,2.8,3c1-0.8,2.1-1.7,3.2-2.6c1.1-0.9,2.2-1.4,3.3-1.4
				c2.4,0,4.3,1,5.7,3c1.4,2,2.5,4.5,3.2,7.5s1.2,6.4,1.3,10c0.1,3.6,0.1,7.1-0.1,10.4c-0.2,3.3-0.4,6.2-0.8,8.8
				C-387.2-122.1-387.5-120.4-387.7-119.5z"/>
			<path class="st3" d="M-354.6-136.1c0.1,0.4,0.3,0.9,0.5,1.6c0.2,0.6,0.5,1,0.9,1s0.8-0.3,1.2-0.9c0.4-0.6,0.9-0.9,1.4-0.9
				c0.4,0,0.7,0.4,1.1,1.3c0.4,0.9,0.7,1.8,0.9,3c0.3,1.1,0.5,2.2,0.7,3.3c0.2,1.1,0.3,1.9,0.3,2.3c0,1-0.6,1.9-1.7,2.8
				s-2.5,1.6-4,2.2s-3.1,1.1-4.7,1.5s-2.8,0.6-3.6,0.6c-2.1,0-4.3-0.4-6.7-1.1c-2.3-0.7-4.4-1.9-6.3-3.5s-3.5-3.7-4.7-6.1
				c-1.2-2.5-1.9-5.5-1.9-9.1c0-3.5,0.5-6.8,1.6-10s2.6-6,4.4-8.4s3.9-4.4,6.3-5.8c2.3-1.5,4.7-2.2,7.2-2.2c2,0,3.8,0.6,5.4,1.7
				c1.6,1.1,3,2.6,4.1,4.5c1.1,1.8,2,3.9,2.6,6.2s0.9,4.5,0.9,6.8c0,1-0.1,2.1-0.4,3.2c-0.3,1.1-0.7,2.1-1.2,3s-1.1,1.7-1.9,2.3
				C-353-136.4-353.8-136.1-354.6-136.1z M-359.7-147.9c0.3,0,0.6-0.1,0.9-0.4c0.3-0.3,0.4-0.7,0.4-1.3c0-0.8-0.2-1.5-0.5-1.9
				s-0.7-0.6-1.1-0.7c-0.4,0-0.8,0.2-1.1,0.5c-0.3,0.4-0.5,1-0.5,1.8c0,0.4,0.2,0.8,0.5,1.2C-360.7-148.2-360.3-147.9-359.7-147.9z"
				/>
		</g>
		<g>
			<path class="st4" d="M-427.8-218.5c-8.7,0-16.3-3.1-16.8-3.3l-1.3-0.5l0.1-1.4c0.1-0.8,1.7-19.7,14-27.2
				c12.3-7.6,29.9-0.5,30.6-0.2l1.3,0.5l-0.1,1.4c-0.1,0.8-1.7,19.7-14,27.2C-418.3-219.4-423.2-218.5-427.8-218.5z M-441.8-224.9
				c4.2,1.4,16.9,5,25.7-0.4c8.8-5.4,11.3-18.3,12-22.7c-4.2-1.4-16.9-5-25.7,0.4S-441.2-229.3-441.8-224.9z"/>
		</g>
		<g>
			<path class="st4" d="M-385.9-244.3c-8.7,0-16.4-3.1-16.8-3.3l-1.3-0.5l0.1-1.4c0.1-0.7,1.5-17.1,11.6-25.5c1-0.8,2.3-1,3.5-0.5
				s1.9,1.6,2,2.8c0.2,2.6,0.9,7.5,3.5,11.8c2.5,4,6.1,6.7,8.7,8.3c1.1,0.7,1.8,1.9,1.7,3.3c-0.1,1.3-0.9,2.5-2.2,3
				C-378.6-244.8-382.4-244.3-385.9-244.3z M-399.9-250.7c3.7,1.2,14,4.2,22.5,1.1c-2.9-1.9-6.7-4.9-9.3-9.2c-2.6-4.3-3.6-9-4-12.5
				C-397.2-265.1-399.3-254.5-399.9-250.7z"/>
		</g>
		<g>
			<path class="st4" d="M-455.5-197.3c-0.5,0-0.9-0.1-1.3-0.3c-1.2-0.5-2.1-1.6-2.2-3c-0.2-3.1-1.1-7.5-3.5-11.5
				c-2.7-4.3-6.8-7.2-9-8.5c-1.1-0.6-1.7-1.8-1.6-3.1s0.8-2.4,2-2.9c12-5.2,27.3,0.9,28,1.1l1.3,0.5l-0.1,1.4
				c-0.1,0.7-1.5,16.7-11.3,25.2l0,0C-453.9-197.6-454.7-197.3-455.5-197.3z M-468.5-223.4c3,1.9,6.7,4.9,9.3,9.2
				c2.6,4.3,3.6,9,4,12.5c6.5-6.1,8.6-16.7,9.1-20.5C-449.8-223.5-460.1-226.4-468.5-223.4z"/>
		</g>
		<g>
			<path class="st4" d="M-423.9-218.7c-0.5,0-1.1-0.2-1.5-0.6c-0.7-0.8-0.7-2,0.1-2.8c12.9-11.7,14.2-28.9,14.2-29
				c0.1-1.1,1-1.9,2.1-1.8c1.1,0.1,1.9,1,1.8,2.1c-0.1,0.8-1.4,18.9-15.5,31.7C-423-218.9-423.5-218.7-423.9-218.7z"/>
		</g>
		<g>
			<path class="st4" d="M-440.4-220.7c-0.5,0-1-0.2-1.3-0.6c-0.7-0.7-0.6-1.9,0.1-2.6c12.1-11,14.9-27.1,15-27.3
				c0.2-1,1.1-1.7,2.1-1.5s1.7,1.1,1.5,2.1c-0.1,0.7-3.1,17.5-16.1,29.3C-439.5-220.8-439.9-220.7-440.4-220.7z"/>
		</g>
	</g>
</g>
</svg>
