<?xml version="1.0" encoding="utf-8"?>
<!-- Generator: Adobe Illustrator 21.1.0, SVG Export Plug-In . SVG Version: 6.00 Build 0)  -->
<svg version="1.1" id="Layer_1" xmlns="http://www.w3.org/2000/svg" xmlns:xlink="http://www.w3.org/1999/xlink" x="0px" y="0px"
	 viewBox="0 0 32 32" style="enable-background:new 0 0 32 32;" xml:space="preserve">
<style type="text/css">
	.st0{fill:none;}
</style>
<title></title>
<g>
	<path class="st0" d="M8.6,7C8,7,7.5,7.1,7,7.3C5.3,8.2,4.5,10.2,5.4,12l1.1-0.7l2.2,3.6c1.8-0.7,3.7-1.3,5.7-1.7
		c-0.6-0.9-1.1-1.9-1.5-2.9v-0.1C11.9,7.8,10.7,7,8.6,7z"/>
	<path class="st0" d="M4.5,12.5C4.2,11.9,4,11.2,4,10.5C4.1,8,6.1,6,8.5,6c2.5,0,4.1,1.1,5.2,3.8l0,0.1c0.4,1.1,1,2.1,1.6,3.1
		l1.1-0.2c-0.7-1.1-1.3-2.2-1.8-3.4C13.4,6.3,11.5,5,8.5,5C5.5,5,3,7.5,3,10.5c0,0.9,0.2,1.8,0.7,2.6L4.5,12.5z"/>
	<path class="st0" d="M28,14c0-0.6-0.4-1-1-1C11.8,13,1.5,17.4,1,24c2.1-0.2,4.4-1.6,7.3-3.3C13.2,17.7,19.3,14.1,28,14z"/>
	<path class="st0" d="M7.8,15.2l-1.6-2.6l-3,2l1.5,2.3C5.6,16.3,6.7,15.7,7.8,15.2z"/>
	<path class="st0" d="M20.4,21c1.1-3.1,4.5-4.8,7.6-3.7V15c-8.4,0.2-14.4,3.7-19.2,6.5c-3,1.8-5.5,3.3-7.8,3.5v1c0,0.6,0.4,1,1,1
		h19.5C20.1,25.4,19.6,23.1,20.4,21z"/>
	<circle class="st0" cx="26" cy="23" r="5"/>
	<path d="M29.5,18.1c-0.2-0.1-0.3-0.2-0.5-0.3V14c0-1.1-0.9-2-2-2c-3.1,0-6.3,0.2-9.4,0.6c-0.8-1.1-1.5-2.4-2-3.6
		c-1.5-3.4-3.7-5-7.1-5C4.9,4,2,6.9,2,10.5c0,1.1,0.3,2.2,0.8,3.2l-1,0.7l2,3.2c-2.3,1.6-3.7,4.2-3.8,7V26c0,1.1,0.9,2,2,2h2.1
		c0.3,0.8,1.1,1.2,1.9,0.9c0.4-0.1,0.8-0.5,0.9-0.9h15.8c2.7,1.9,6.5,1.2,8.3-1.5S32.2,20,29.5,18.1z M8.5,5c3,0,4.9,1.3,6.2,4.4
		c0.5,1.2,1.1,2.3,1.8,3.4L15.4,13c-0.6-1-1.2-2-1.6-3.1l0-0.1C12.6,7.1,11.1,6,8.5,6C6.1,6,4.1,8,4,10.5c0,0.7,0.2,1.4,0.5,2.1
		l-0.9,0.6C3.2,12.3,3,11.4,3,10.5C3,7.5,5.5,5,8.5,5z M14.3,13.2c-1.9,0.4-3.8,0.9-5.7,1.7l-2.2-3.6L5.4,12C4.5,10.2,5.3,8.2,7,7.3
		C7.5,7.1,8,7,8.6,7c2.1,0,3.3,0.8,4.3,3.2v0.1C13.3,11.3,13.8,12.2,14.3,13.2z M3.2,14.7l3-2l1.6,2.6c-1.1,0.5-2.1,1-3.1,1.7
		L3.2,14.7z M27,13c0.6,0,1,0.4,1,1c-8.7,0.1-14.8,3.7-19.7,6.7C5.4,22.4,3.1,23.8,1,24C1.5,17.4,11.8,13,27,13z M2,27
		c-0.6,0-1-0.4-1-1v-1c2.3-0.2,4.8-1.6,7.8-3.5c4.8-2.9,10.8-6.4,19.2-6.5v2.3c-3.1-1.1-6.6,0.5-7.6,3.7c-0.7,2.1-0.3,4.4,1.2,6H2z
		 M26,28c-2.8,0-5-2.2-5-5s2.2-5,5-5s5,2.2,5,5S28.8,28,26,28z"/>
</g>
</svg>
