<?xml version="1.0" encoding="utf-8"?>
<!-- Generator: Adobe Illustrator 21.1.0, SVG Export Plug-In . SVG Version: 6.00 Build 0)  -->
<svg version="1.1" id="Layer_1" xmlns="http://www.w3.org/2000/svg" xmlns:xlink="http://www.w3.org/1999/xlink" x="0px" y="0px"
	 viewBox="0 0 65 65" style="enable-background:new 0 0 65 65;" xml:space="preserve">
<style type="text/css">
	.st0{fill:none;}
	.st1{fill:#1D1D1B;}
</style>
<g>
	<path class="st0" d="M39.7,25.9v-0.1c0-0.2,0.1-0.3,0.1-0.4c-0.5,0.9-1,1.6-1.5,2.1C38.9,27.1,39.6,26.3,39.7,25.9z"/>
	<path class="st0" d="M19,63h2c0,0,0.1,0,0.1,0l0-3h-2V63z"/>
	<rect x="26" y="40" class="st0" width="12" height="3"/>
	<path class="st0" d="M43,63h2c0,0,0,0,0,0l0-3h-2V63z"/>
	<path class="st0" d="M31,63h2c0,0,0,0,0,0l0-3h-2V63z"/>
	<circle class="st0" cx="18" cy="51" r="2"/>
	<path class="st0" d="M32.5,25.6c0.1-0.2,0.3-0.5,0.6-0.8c0.4-0.5,1.1-1.3,1.3-1.7l0.1-0.2c0.4-0.7,0.8-1.3,0.8-3.4
		c0-1.6-0.6-3.7-1.3-5.5c-0.2,0.3-0.3,0.5-0.4,0.7c-0.1,0.1-0.1,0.1-0.1,0.1c-1.9,2.4-3.9,5.8-3.9,7.8c0,2.3,0.6,3.8,1.5,5
		C31.5,26.9,32,26.2,32.5,25.6z"/>
	<path class="st0" d="M52,4H12c-1.1,0-2,0.9-2,2v50c0,1.1,0.9,2,2,2h6h4h8h4h8h4h6c1.1,0,2-0.9,2-2V6C54,4.9,53.1,4,52,4z
		 M31.9,13.5c0.9-1.3,1.5-2.5,1.5-4.5c1.4,1.5,3.9,6.8,3.8,10.5c0,2.7-0.6,3.6-1.1,4.5c-0.4,0.7-1.6,2.1-2.1,2.7
		c-1,1.2-1.9,2.9-2.2,4.2c-2-1.5-4.2-3.8-4.2-8.4C27.6,19.1,31.2,14.4,31.9,13.5z M18,55c-2.2,0-4-1.8-4-4s1.8-4,4-4s4,1.8,4,4
		S20.2,55,18,55z M22,25.5c0-2.8,2.7-5.6,4.6-7.1c-0.3,0.9-1.5,4.2-1,6.8c0.4,2.7,2.3,4.8,3.5,5.7C24.3,30.8,22,27.8,22,25.5z
		 M40,44c0,0.6-0.4,1-1,1H25c-0.6,0-1-0.4-1-1v-5c0-0.6,0.4-1,1-1h14c0.6,0,1,0.4,1,1V44z M41.7,26.4c-0.3,1.3-1.8,2.7-2.7,3.1
		c-1.3,0.6-2.8,0.6-4.3,1.4c-0.1-0.4,0-0.7,0-1.1c0-0.7,1-2.2,1.5-2.8c1.3-1.5,3.1-4.2,3.2-5.7c0.1-0.8,0.1-2.6-0.3-4.8
		C41,18,42.7,22.7,41.7,26.4z M46,55c-2.2,0-4-1.8-4-4s1.8-4,4-4s4,1.8,4,4S48.2,55,46,55z"/>
	<circle class="st0" cx="46" cy="51" r="2"/>
	<path class="st1" d="M39,38H25c-0.6,0-1,0.4-1,1v5c0,0.6,0.4,1,1,1h14c0.6,0,1-0.4,1-1v-5C40,38.4,39.6,38,39,38z M38,43H26v-3h12
		V43z"/>
	<path class="st1" d="M31.8,30.9c0.3-1.3,1.2-3,2.2-4.2c0.5-0.6,1.7-2,2.1-2.7c0.5-0.9,1.1-1.8,1.1-4.5c0.1-3.7-2.4-9-3.8-10.5
		c0,2-0.6,3.2-1.5,4.5c-0.7,0.9-4.3,5.6-4.3,9C27.6,27.1,29.8,29.4,31.8,30.9z M33.5,14.8C33.5,14.8,33.5,14.8,33.5,14.8
		c0.2-0.3,0.3-0.5,0.5-0.8c0.7,1.8,1.3,3.9,1.3,5.5c0,2.1-0.4,2.7-0.8,3.4l-0.1,0.2c-0.2,0.4-0.9,1.2-1.3,1.7
		c-0.3,0.3-0.5,0.6-0.6,0.8c-0.5,0.6-1,1.3-1.4,2c-0.9-1.2-1.5-2.7-1.5-5C29.6,20.6,31.6,17.2,33.5,14.8z"/>
	<path class="st1" d="M39.1,16.5c0.4,2.2,0.4,4,0.3,4.8c-0.1,1.5-1.9,4.2-3.2,5.7c-0.5,0.6-1.5,2.1-1.5,2.8c0,0.4-0.1,0.7,0,1.1
		c1.5-0.8,3-0.8,4.3-1.4c0.9-0.4,2.4-1.8,2.7-3.1C42.7,22.7,41,18,39.1,16.5z M39.7,25.8v0.1c-0.1,0.4-0.8,1.2-1.4,1.6
		c0.5-0.5,1-1.2,1.5-2.1C39.8,25.5,39.7,25.6,39.7,25.8z"/>
	<path class="st1" d="M25.6,25.2c-0.5-2.6,0.7-5.9,1-6.8c-1.9,1.5-4.6,4.3-4.6,7.1c0,2.3,2.3,5.3,7.1,5.4C27.9,30,26,27.9,25.6,25.2
		z"/>
	<path class="st1" d="M52,2H12C9.8,2,8,3.8,8,6v50c0,2.2,1.8,4,4,4h5v3c0,1.2,0.8,2,2,2h2c1.2,0,2-0.8,2-2v-3h6v3c0,1.2,0.8,2,2,2h2
		c1.2,0,2-0.8,2-2v-3h6v3c0,1.2,0.8,2,2,2h2c1.2,0,2-0.8,2-2v-3h5c2.2,0,4-1.8,4-4V6C56,3.8,54.2,2,52,2z M21.1,63
		C21.1,63,21,63,21.1,63L19,63v-3h2L21.1,63z M33,63C33,63,33,63,33,63l-2,0v-3h2L33,63z M45,63C45,63,45,63,45,63l-2,0v-3h2L45,63z
		 M54,56c0,1.1-0.9,2-2,2h-6h-4h-8h-4h-8h-4h-6c-1.1,0-2-0.9-2-2V6c0-1.1,0.9-2,2-2h40c1.1,0,2,0.9,2,2V56z"/>
	<path class="st1" d="M18,47c-2.2,0-4,1.8-4,4s1.8,4,4,4s4-1.8,4-4S20.2,47,18,47z M18,53c-1.1,0-2-0.9-2-2s0.9-2,2-2s2,0.9,2,2
		S19.1,53,18,53z"/>
	<path class="st1" d="M46,47c-2.2,0-4,1.8-4,4s1.8,4,4,4s4-1.8,4-4S48.2,47,46,47z M46,53c-1.1,0-2-0.9-2-2s0.9-2,2-2s2,0.9,2,2
		S47.1,53,46,53z"/>
</g>
</svg>
