<?xml version="1.0" encoding="iso-8859-1"?>
<!-- Generator: Adobe Illustrator 19.0.0, SVG Export Plug-In . SVG Version: 6.00 Build 0)  -->
<svg version="1.1" id="Layer_1" xmlns="http://www.w3.org/2000/svg" xmlns:xlink="http://www.w3.org/1999/xlink" x="0px" y="0px"
	 viewBox="0 0 489.993 489.993" style="enable-background:new 0 0 489.993 489.993;" xml:space="preserve">
<g>
	<g>
		<g>
			<path d="M0,0v489.993h489.993V0H0z M15.312,474.681V15.312H474.68v459.369H15.312z"/>
			<path d="M53.593,398.12H436.4V91.874H53.593V398.12z M306.246,382.807H183.747v-15.312h122.499V382.807z M68.905,107.186h352.183
				v45.937H298.59v-30.625h-45.937v30.625H68.905V107.186z M283.277,137.811v61.249h-15.312v-61.249H283.277z M68.905,168.435
				h183.747v45.937h15.312v30.625h15.312v-30.625h15.312v-45.937h122.498v214.372h-99.528v-15.312h15.312v-15.312H153.123v15.312
				h15.312v15.312h-99.53V168.435z"/>
			<rect x="53.593" y="45.937" width="137.811" height="15.312"/>
			<rect x="206.716" y="45.937" width="22.968" height="15.312"/>
			<rect x="244.997" y="45.937" width="22.968" height="15.312"/>
			<rect x="283.277" y="45.937" width="22.968" height="15.312"/>
			<path d="M76.561,413.432c-12.665,0-22.968,10.302-22.968,22.968c0,12.666,10.303,22.968,22.968,22.968
				c12.665,0,22.968-10.303,22.968-22.968S89.226,413.432,76.561,413.432z M76.561,444.056c-4.224,0-7.656-3.432-7.656-7.656
				s3.432-7.656,7.656-7.656s7.656,3.432,7.656,7.656S80.785,444.056,76.561,444.056z"/>
			<path d="M137.811,413.432c-12.666,0-22.968,10.303-22.968,22.968s10.303,22.968,22.968,22.968
				c12.666,0,22.969-10.303,22.969-22.968S150.476,413.432,137.811,413.432z M137.811,444.056c-4.224,0-7.656-3.432-7.656-7.656
				s3.432-7.656,7.656-7.656s7.656,3.432,7.656,7.656C145.467,440.624,142.035,444.056,137.811,444.056z"/>
			<rect x="176.091" y="428.744" width="15.312" height="15.312"/>
			<rect x="206.716" y="428.744" width="15.312" height="15.312"/>
			<rect x="237.34" y="428.744" width="199.06" height="15.312"/>
			
				<rect x="93.049" y="269.879" transform="matrix(0.7071 -0.7071 0.7071 0.7071 -158.6867 171.9657)" width="70.377" height="15.311"/>
			
				<rect x="197.146" y="222.552" transform="matrix(0.7071 0.7071 -0.7071 0.7071 234.5785 -72.4975)" width="15.311" height="48.723"/>
			
				<rect x="156.951" y="276.281" transform="matrix(0.7071 0.7071 -0.7071 0.7071 251.228 -32.3021)" width="15.311" height="21.655"/>
		</g>
	</g>
</g>
<g>
</g>
<g>
</g>
<g>
</g>
<g>
</g>
<g>
</g>
<g>
</g>
<g>
</g>
<g>
</g>
<g>
</g>
<g>
</g>
<g>
</g>
<g>
</g>
<g>
</g>
<g>
</g>
<g>
</g>
</svg>
