<?xml version="1.0" encoding="utf-8"?>
<!-- Generator: Adobe Illustrator 19.1.0, SVG Export Plug-In . SVG Version: 6.00 Build 0)  -->
<svg version="1.1" id="Layer_1" xmlns="http://www.w3.org/2000/svg" xmlns:xlink="http://www.w3.org/1999/xlink" x="0px" y="0px"
	 viewBox="0 0 36 36" style="enable-background:new 0 0 36 36;" xml:space="preserve">
<g>
	<path d="M21.1,18.7c0-0.2,0-0.3,0-0.5c-0.1-0.9-0.5-1.8-1.3-2.3c-0.8-0.6-1.7-0.8-2.6-0.5c-1.3,0.3-2.3,1.5-2.4,2.8
		c-0.1,1.1,0.4,2.2,1.3,2.9c0.8,0.6,1.7,0.8,2.6,0.5C20,21.3,21,20.1,21.1,18.7z M34.1,12.6c-1.6-5-5.6-9-10.6-10.6
		C9.5-2.6-3.3,10.2,1.3,24.2c1.6,5,5.6,9,10.6,10.6C25.9,39.4,38.7,26.6,34.1,12.6z M7.3,24.6l7.6-2l0,0c-0.3-0.3-0.6-0.5-0.9-0.9
		l-10.2,1C3,20.2,3.9,18,6,15.4l6.9,3.9c0-0.1,0-0.3-0.1-0.5c0-0.3,0-0.5,0-0.8l-8.1-6.5C6,9,8.3,7.8,11.4,7.8l2.2,7.7
		c0.2-0.3,0.5-0.6,0.8-0.9L13.2,4.2C15.7,3.4,18,4,20.6,6.3l-3.9,7.1c0.4-0.1,0.8-0.1,1.2-0.1L24.4,5c2.6,1.3,3.6,4.2,3.9,6.8
		l-7.8,2.3c0.1,0.1,0.3,0.2,0.4,0.2c0.2,0.2,0.4,0.3,0.6,0.5L32,13.6c0.9,2.6,0,6-2.1,7.6l-7-4C23,17.6,23,18,23,18.5l8.1,6.6
		c-1.3,2.6-4,4.1-6.9,3.8l-2-7.7c-0.2,0.4-0.5,0.7-0.8,1l1,10.2c-2.6,0.8-5.8,0.2-7.5-2.2l4-6.8c-0.4,0.1-0.9,0.1-1.3,0.1l-6.5,7.9
		C8.5,30.1,7.1,27.9,7.3,24.6z"/>
</g>
</svg>
