<?xml version="1.0" encoding="utf-8"?>
<!-- Generator: Adobe Illustrator 21.1.0, SVG Export Plug-In . SVG Version: 6.00 Build 0)  -->
<svg version="1.1" id="Layer_1" xmlns="http://www.w3.org/2000/svg" xmlns:xlink="http://www.w3.org/1999/xlink" x="0px" y="0px"
	 viewBox="0 0 500 500" style="enable-background:new 0 0 500 500;" xml:space="preserve">
<style type="text/css">
	.st0{fill:none;}
	.st1{fill:#FFFFFF;}
</style>
<g>
	<path class="st0" d="M436.8,106H65.1c-2.2,0-4,1.8-4,4v206.6h379.7h0V110C440.8,107.8,439,106,436.8,106z"/>
	<path class="st0" d="M281.8,351.5h-61.6c-5.7,0-10.3,4.6-10.3,10.3v4.1c0,5.7,4.6,10.3,10.3,10.3h61.6c5.7,0,10.3-4.6,10.3-10.3
		v-4.1C292.1,356.1,287.5,351.5,281.8,351.5z"/>
	<path d="M479,358.9l-16.2-42.3h0V110c0-14.3-11.7-26-26-26H65.1c-14.3,0-26,11.7-26,26v206.8l-18.2,42.8c-0.1,0.2-0.1,0.3-0.2,0.5
		c-0.7,1.7-1.1,3.6-1.1,5.6v6.4c0,8.2,6.8,15,15,15h431c8.3,0,15-6.8,15-15v-6.4C480.6,363.3,480,361,479,358.9z M248.7,92.3
		c2.6,0,4.7,2.1,4.7,4.7c-0.1,2.6-2.2,4.7-4.7,4.7c-2.6,0-4.7-2.1-4.7-4.7S246.1,92.3,248.7,92.3z M292.1,365.9
		c0,5.7-4.6,10.3-10.3,10.3h-61.6c-5.7,0-10.3-4.6-10.3-10.3v-4.1c0-5.7,4.6-10.3,10.3-10.3h61.6c5.7,0,10.3,4.6,10.3,10.3V365.9z
		 M440.8,316.6H61.1V110c0-2.2,1.8-4,4-4h371.7c2.2,0,4,1.8,4,4L440.8,316.6L440.8,316.6z"/>
	<path class="st1" d="M248.7,101.7c2.5,0,4.6-2.1,4.7-4.7c0-2.6-2.1-4.7-4.7-4.7S244,94.4,244,97S246.1,101.7,248.7,101.7z"/>
</g>
</svg>
