<?xml version="1.0" encoding="utf-8"?>
<!-- Svg Vector Icons : http://www.onlinewebfonts.com/icon -->
<!DOCTYPE svg PUBLIC "-//W3C//DTD SVG 1.1//EN" "http://www.w3.org/Graphics/SVG/1.1/DTD/svg11.dtd">
<svg version="1.1" xmlns="http://www.w3.org/2000/svg" xmlns:xlink="http://www.w3.org/1999/xlink" x="0px" y="0px" viewBox="0 0 1000 1000" enable-background="new 0 0 1000 1000" xml:space="preserve">
<metadata> Svg Vector Icons : http://www.onlinewebfonts.com/icon </metadata>
<g><g transform="translate(0.000000,512.000000) scale(0.100000,-0.100000)"><path d="M854.2,4993.4c-350.3-86.1-658.5-402-731.2-754.2c-30.6-143.6-30.6-8095,0-8238.5c76.6-367.5,405.8-691,773.3-761.8c84.2-15.3,1232.7-19.1,4249.4-15.3l4134.6,5.7l99.5,40.2c212.5,88.1,384.7,260.3,472.8,472.8l40.2,99.5l5.7,3742.2c3.8,3382.3,1.9,3749.8-26.8,3847.4c-90,310.1-331.2,534-639.3,593.4c-137.8,26.8-6678.5,26.8-6747.4,0c-55.5-21.1-111-132.1-91.9-185.7c5.7-19.1,28.7-53.6,49.8-76.6l38.3-44h3324.9c3755.6,0,3453.1,13.4,3617.7-151.2c168.4-168.4,155,199.1,149.3-3973.8l-5.7-3694.3l-42.1-76.6c-47.9-90-141.6-181.8-235.4-231.6c-65.1-34.5-206.7-36.4-4220.7-36.4H915.4l-91.9,42.1c-128.3,59.3-271.8,202.9-333.1,329.2c-44,90-51.7,134-53.6,269.9c0,137.8,7.7,179.9,51.7,271.8c61.3,134,185.7,260.3,312,319.7c139.7,67,365.6,76.6,511.1,21c225.9-84.2,386.7-294.8,417.3-545.5c11.5-91.9,28.7-141.7,59.4-174.2c53.6-57.4,147.4-61.3,216.3-5.8l49.8,38.3V154.4c0,4396.8,5.7,4115.4-109.1,4347c-68.9,137.8-250.7,319.7-400,398.1C1334.6,5010.6,1076.2,5047,854.2,4993.4z M1338.5,4637.4c137.8-59.3,243.1-157,315.8-291l65.1-120.6l5.7-3640.7l3.8-3642.6l-118.7,76.6c-183.8,120.6-340.7,160.8-576.2,149.3c-210.6-11.5-336.9-49.8-482.4-147.4c-42.1-28.7-88-57.4-101.4-67c-19.1-11.5-23,696.8-19.1,3619.7l5.7,3633.1l53.6,107.2c84.2,174.2,252.7,312,444.1,363.7C1026.4,4702.5,1240.8,4681.4,1338.5,4637.4z"/><path d="M2808.5,3041c-32.5-15.3-65.1-40.2-72.7-59.3c-15.3-40.2-15.3-6657.4,0-6699.5c34.4-86.1,19.1-86.1,1778.2-86.1c1223.2,0,1669.1,5.7,1699.8,23c68.9,36.4,84.2,72.7,97.6,227.8c45.9,551.3,348.4,1003,825,1232.7c153.1,72.7,377.1,143.6,459.4,143.6c24.9,0,28.7-55.5,28.7-432.6c0-239.3,7.7-446,19.1-465.2c30.6-59.3,124.4-88,193.3-57.4c103.4,42.1,112.9,93.8,112.9,639.3c0,543.6-9.6,597.2-111,639.3c-67,28.7-335,3.8-530.2-49.8c-625.9-166.5-1140.8-706.3-1274.8-1336.1c-23-105.3-44-202.9-47.9-214.4c-5.8-19.1-315.8-24.9-1472-24.9H3049.7v1311.2v1311.2h1579.2H6210l45.9,47.9c47.9,45.9,47.9,47.9,47.9,440.3c0,392.4,0,394.3-47.9,440.3c-65.1,67-149.3,63.2-222-7.6L5978.3,9v-269.9v-269.9H4514H3049.7v1636.6v1636.6H4514h1462.4l5.7-612.5c5.7-581.9,7.6-612.5,44-648.9c65.1-67,147.4-70.8,216.3-11.5l61.3,51.7l3.8,604.9l5.7,606.8h1138.9h1138.9l5.7-1630.9l3.8-1630.8l-451.7-5.8c-447.9-5.7-451.7-5.7-488.1-51.7c-55.5-68.9-47.9-179.9,13.4-229.7c47.9-38.3,74.7-40.2,488.1-40.2h438.3v-1311.2v-1311.2h-934.1h-936l-44-47.9c-61.3-65.1-61.3-166.5-3.8-225.9l44-42.1h1050.9h1050.9l44,44l44,44v3338.3v3338.3l-44,44l-44,44l-2980.3,3.8C3377,3065.9,2858.3,3062,2808.5,3041z"/></g></g>
</svg>