<?xml version="1.0" encoding="utf-8"?>
<!-- Generator: Adobe Illustrator 21.1.0, SVG Export Plug-In . SVG Version: 6.00 Build 0)  -->
<svg version="1.1" id="Layer_1" xmlns:sketch="http://www.bohemiancoding.com/sketch/ns"
	 xmlns="http://www.w3.org/2000/svg" xmlns:xlink="http://www.w3.org/1999/xlink" x="0px" y="0px" viewBox="0 0 24 22"
	 style="enable-background:new 0 0 24 22;" xml:space="preserve">
<title></title>
<desc></desc>
<g id="slice" transform="translate(215.000000, 119.000000)">
</g>
<g>
	<path d="M13,0C7.6,0,3.1,3.9,2.2,9H0l2.5,3L5,9H3.2c0.9-4.6,5-8,9.8-8c5.5,0,10,4.5,10,10s-4.5,10-10,10c-3.7,0-6.9-2-8.7-5H3.2
		c1.8,3.6,5.5,6,9.8,6c6.1,0,11-4.9,11-11S19.1,0,13,0z"/>
	<polygon points="12.5,4 12.5,11.3 17.7,14.4 18.2,13.6 13.5,10.8 13.5,4 	"/>
</g>
</svg>
