<?xml version="1.0" ?><svg enable-background="new 0 0 40 40" id="Слой_1" version="1.1" viewBox="0 0 40 40" xml:space="preserve" xmlns="http://www.w3.org/2000/svg" xmlns:xlink="http://www.w3.org/1999/xlink"><g><path d="M38.9,13c0.5,0,1-0.4,1-1V5.7c0-3.1-2.5-5.7-5.7-5.7H5.6C2.4,0-0.1,2.6-0.1,5.7v28.7c0,3.1,2.5,5.7,5.7,5.7h28.7   c3.1,0,5.7-2.5,5.7-5.7V20.6c0-0.6-0.5-1-1-1s-1,0.4-1,1v12.8h-36V5.7c0-2,1.7-3.7,3.7-3.7h28.7c2,0,3.7,1.6,3.7,3.7V12   C37.9,12.6,38.3,13,38.9,13z M37.7,35.3c-0.4,1.5-1.9,2.7-3.5,2.7H5.6c-1.7,0-3.1-1.1-3.5-2.7H37.7z"/></g><g><path d="M24,28.3c-0.3,0-0.5-0.1-0.7-0.3L10.5,15.3l-5,4.5c-0.4,0.4-1,0.3-1.4-0.1c-0.4-0.4-0.3-1,0.1-1.4l5.7-5.1   c0.4-0.4,1-0.3,1.4,0l13.5,13.5c0.4,0.4,0.4,1,0,1.4C24.6,28.2,24.3,28.3,24,28.3z"/></g><g><path d="M35,25.4c-0.3,0-0.5-0.1-0.7-0.3L27.2,18l-4,3.3c-0.4,0.4-1.1,0.3-1.4-0.1c-0.4-0.4-0.3-1.1,0.1-1.4l4.7-3.9   c0.4-0.3,1-0.3,1.4,0.1l7.8,7.8c0.4,0.4,0.4,1,0,1.4C35.5,25.3,35.2,25.4,35,25.4z"/></g><g><path d="M23,14c-2.8,0-5-2.2-5-5s2.2-5,5-5s5,2.2,5,5S25.8,14,23,14z M23,6c-1.7,0-3,1.3-3,3s1.3,3,3,3s3-1.3,3-3S24.7,6,23,6z"/></g></svg>