<?xml version="1.0" encoding="utf-8"?>
<!-- Generator: Adobe Illustrator 21.1.0, SVG Export Plug-In . SVG Version: 6.00 Build 0)  -->
<svg version="1.1" id="Layer_1" xmlns="http://www.w3.org/2000/svg" xmlns:xlink="http://www.w3.org/1999/xlink" x="0px" y="0px"
	 viewBox="0 0 54 48.2" style="enable-background:new 0 0 54 48.2;" xml:space="preserve">
<style type="text/css">
	.st0{fill:none;}
	.st1{fill:#078CD6;}
</style>
<title></title>
<g>
	<path class="st0" d="M11,22.4c0-2.9,2.3-5.2,5.2-5.2h28.6L30.5,2.9c-1.2-1.2-3.3-1.2-4.5,0l-23,23c-1.2,1.2-1.2,3.2,0,4.5
		c0,0,0,0,0,0l8.1,8V22.4z"/>
	<path class="st0" d="M13,22.4v2.8h39v-2.8c0-1.7-1.4-3.2-3.2-3.2H16.2C14.4,19.2,13,20.6,13,22.4z"/>
	<rect x="13" y="27.2" class="st0" width="39" height="2"/>
	<path class="st0" d="M13,31.2v9.6c0,0.1,0,0.1,0,0.2v2c0,1.7,1.4,3.2,3.2,3.2h32.7c1.7,0,3.2-1.4,3.2-3.2V31.2H13z M23,41.2h-5
		c-0.6,0-1-0.4-1-1s0.4-1,1-1h5c0.6,0,1,0.4,1,1S23.5,41.2,23,41.2z M26,37.2h-8c-0.6,0-1-0.4-1-1s0.4-1,1-1h8c0.6,0,1,0.4,1,1
		S26.5,37.2,26,37.2z M35,37.2h-5c-0.6,0-1-0.4-1-1s0.4-1,1-1h5c0.6,0,1,0.4,1,1S35.5,37.2,35,37.2z"/>
	<path class="st1" d="M48.8,17.2h-1.4c-0.2-0.3-0.5-0.6-0.7-0.9L31.9,1.5c-2-2-5.3-2-7.3,0l-23,23c-2,2-2,5.3,0,7.3c0,0,0,0,0,0
		l9.4,9.4v1.7c0,2.9,2.3,5.2,5.2,5.2h32.7c2.9,0,5.2-2.3,5.2-5.2V22.4C54,19.5,51.7,17.2,48.8,17.2z M13,27.2h39v2H13V27.2z
		 M52,22.4v2.8H13v-2.8c0-1.7,1.4-3.2,3.2-3.2h32.7C50.6,19.2,52,20.6,52,22.4z M2.9,30.4C2.9,30.4,2.9,30.4,2.9,30.4
		c-1.2-1.3-1.2-3.3,0-4.5l23-23c1.2-1.2,3.3-1.2,4.5,0l14.3,14.3H16.2c-2.9,0-5.2,2.3-5.2,5.2v16.1L2.9,30.4z M48.8,46.2H16.2
		c-1.7,0-3.2-1.4-3.2-3.2v-2c0-0.1,0-0.1,0-0.2v-9.6h39v11.8C52,44.8,50.6,46.2,48.8,46.2z"/>
	<path class="st1" d="M26,35.2h-8c-0.6,0-1,0.4-1,1s0.4,1,1,1h8c0.6,0,1-0.4,1-1S26.5,35.2,26,35.2z"/>
	<path class="st1" d="M23,39.2h-5c-0.6,0-1,0.4-1,1s0.4,1,1,1h5c0.6,0,1-0.4,1-1S23.5,39.2,23,39.2z"/>
	<path class="st1" d="M35,35.2h-5c-0.6,0-1,0.4-1,1s0.4,1,1,1h5c0.6,0,1-0.4,1-1S35.5,35.2,35,35.2z"/>
</g>
</svg>
