<?xml version="1.0" encoding="utf-8"?>
<!-- Generator: Adobe Illustrator 21.1.0, SVG Export Plug-In . SVG Version: 6.00 Build 0)  -->
<svg version="1.1" id="Layer_1" xmlns="http://www.w3.org/2000/svg" xmlns:xlink="http://www.w3.org/1999/xlink" x="0px" y="0px"
	 viewBox="0 0 27.3 27.9" style="enable-background:new 0 0 27.3 27.9;" xml:space="preserve">
<style type="text/css">
	.st0{fill:none;}
	.st1{fill:#303030;}
</style>
<g id="Padding__x26__Artboard">
</g>
<g>
	<path class="st0" d="M6.8,8.4c0,0,0.1,0,0.1,0c0.1,0,0.3-0.1,0.3-0.2c0.7-2.1,1.9-3.7,3.6-4.7C11,3.4,11,3.2,10.9,3.1
		c-0.1-0.2-0.3-0.2-0.5-0.1C8.6,4,7.3,5.7,6.5,8C6.5,8.2,6.6,8.4,6.8,8.4z"/>
	<path class="st0" d="M6.4,11.5C6.4,11.5,6.5,11.5,6.4,11.5c0.2,0,0.4-0.1,0.4-0.3l0.1-1c0-0.2-0.1-0.4-0.3-0.4
		c-0.2,0-0.4,0.1-0.4,0.3l-0.1,1C6.1,11.3,6.2,11.4,6.4,11.5z"/>
	<path class="st1" d="M24.7,18.9h0.7c-0.2-0.6-0.3-1.3-0.5-1.9c-0.4-1.5-0.8-3-1.1-4.5c-0.1-0.7-0.2-1.3-0.3-2
		c-0.1-1.1-0.2-2.1-0.5-3.2c-0.5-1.8-1.3-3.2-2.5-4.4C18.6,1,16.2,0,13.6,0c-1.9,0-3.9,0.6-5.5,1.7C6.7,2.6,5.5,4,4.8,5.5
		C4.4,6.2,4.2,7,4,8C3.8,8.5,3.8,9.1,3.7,9.7c0,0.4-0.1,0.7-0.1,1.1c-0.1,0.9-0.3,1.8-0.5,2.8c-0.3,1.3-0.6,2.7-1,4
		C2,18,1.9,18.4,1.8,18.9h0.7H24.7z M6.5,8c0.8-2.3,2.1-4,3.9-5c0.2-0.1,0.4,0,0.5,0.1c0.1,0.2,0,0.4-0.1,0.5
		c-1.7,1-2.9,2.5-3.6,4.7c0,0.1-0.2,0.2-0.3,0.2c0,0-0.1,0-0.1,0C6.6,8.4,6.5,8.2,6.5,8z M6.3,10.1c0-0.2,0.2-0.3,0.4-0.3
		C6.9,9.8,7,9.9,7,10.1l-0.1,1c0,0.2-0.2,0.3-0.3,0.3c0,0,0,0,0,0c-0.2,0-0.3-0.2-0.3-0.4L6.3,10.1z"/>
	<path class="st1" d="M27.2,25l-1.6-5.4h-0.7H2.3H1.6L0,25c-0.1,0.3,0,0.5,0.1,0.8c0.2,0.2,0.4,0.3,0.7,0.3h10.8h0.7h2.8h0.7h0.2
		h10.3c0.3,0,0.5-0.1,0.7-0.3C27.3,25.5,27.3,25.2,27.2,25z"/>
	<path class="st1" d="M12.5,26.8h-0.8c0.2,0.7,0.8,1.2,1.6,1.2h0.9c0.7,0,1.3-0.5,1.6-1.2H15H12.5z"/>
</g>
</svg>
