<?xml version="1.0" encoding="utf-8"?>
<!-- Generator: Adobe Illustrator 21.1.0, SVG Export Plug-In . SVG Version: 6.00 Build 0)  -->
<svg version="1.1" id="Layer_1" xmlns="http://www.w3.org/2000/svg" xmlns:xlink="http://www.w3.org/1999/xlink" x="0px" y="0px"
	 viewBox="0 0 26 30" style="enable-background:new 0 0 26 30;" xml:space="preserve">
<style type="text/css">
	.st0{fill:none;}
</style>
<title></title>
<g>
	<rect x="14" y="18" class="st0" width="10" height="2"/>
	<rect x="2" y="22" class="st0" width="10" height="2"/>
	<rect x="14" y="2" class="st0" width="10" height="2"/>
	<rect x="14" y="10" class="st0" width="10" height="2"/>
	<rect x="14" y="22" class="st0" width="10" height="2"/>
	<rect x="14" y="14" class="st0" width="10" height="2"/>
	<rect x="2" y="26" class="st0" width="10" height="2"/>
	<rect x="14" y="26" class="st0" width="10" height="2"/>
	<rect x="14" y="6" class="st0" width="10" height="2"/>
	<rect x="2" y="18" class="st0" width="10" height="2"/>
	<rect x="2" y="14" class="st0" width="10" height="2"/>
	<path d="M25,0H13c-0.6,0-1,0.4-1,1v4v4v3H1c-0.6,0-1,0.4-1,1v4v4v4v4c0,0.6,0.4,1,1,1h12h12c0.6,0,1-0.4,1-1v-4v-4v-4v-4V9V5V1
		C26,0.4,25.6,0,25,0z M24,24H14v-2h10V24z M12,24H2v-2h10V24z M14,18h10v2H14V18z M24,16H14v-2h10V16z M24,12H14v-2h10V12z M14,2
		h10v2H14V2z M24,6v2H14V6H24z M2,14h10v2H2V14z M12,18v2H2v-2H12z M2,26h10v2H2V26z M24,28H14v-2h10V28z"/>
</g>
</svg>
