<?xml version="1.0" encoding="utf-8"?>
<!-- Generator: Adobe Illustrator 21.1.0, SVG Export Plug-In . SVG Version: 6.00 Build 0)  -->
<svg version="1.1" id="Layer_1" xmlns="http://www.w3.org/2000/svg" xmlns:xlink="http://www.w3.org/1999/xlink" x="0px" y="0px"
	 viewBox="0 0 24 24" style="enable-background:new 0 0 24 24;" xml:space="preserve">
<g>
	<path d="M12,12c1.7,0,3-1.3,3-3s-1.3-3-3-3S9,7.3,9,9S10.3,12,12,12z"/>
	<path d="M12,14c-4.6,0-6,3.3-6,3.3V19h12v-1.7C18,17.3,16.6,14,12,14z"/>
	<circle cx="18.5" cy="8.5" r="2.5"/>
	<path d="M18.5,13c-1.2,0-2.1,0.3-2.8,0.8c2.3,1.1,3.2,3,3.2,3.2v0.1H23v-1.3C23,15.7,21.9,13,18.5,13z"/>
	<circle cx="5.5" cy="8.5" r="2.5"/>
	<path d="M8.3,13.8C7.6,13.3,6.7,13,5.5,13C2.1,13,1,15.7,1,15.8v1.3h4.1V17C5.1,16.8,6,14.9,8.3,13.8z"/>
</g>
</svg>
