<?xml version="1.0" encoding="utf-8"?>
<!-- Generator: Adobe Illustrator 21.1.0, SVG Export Plug-In . SVG Version: 6.00 Build 0)  -->
<svg version="1.1" id="Layer_1" xmlns="http://www.w3.org/2000/svg" xmlns:xlink="http://www.w3.org/1999/xlink" x="0px" y="0px"
	 viewBox="0 0 134.8 162.8" style="enable-background:new 0 0 134.8 162.8;" xml:space="preserve">
<g>
	<path d="M67.4,79c-21.8,0-39.5-17.7-39.5-39.5S45.6,0,67.4,0s39.5,17.7,39.5,39.5S89.2,79,67.4,79z M67.4,10
		c-16.3,0-29.5,13.2-29.5,29.5S51.1,69,67.4,69c16.3,0,29.5-13.2,29.5-29.5S83.7,10,67.4,10z"/>
	<path d="M129.8,162.8H5c-2.8,0-5-2.2-5-5c0-37.2,30.2-67.4,67.4-67.4c37.2,0,67.4,30.2,67.4,67.4
		C134.8,160.6,132.6,162.8,129.8,162.8z M10.2,152.8h114.4c-2.5-29.3-27.2-52.4-57.2-52.4S12.8,123.5,10.2,152.8z"/>
</g>
</svg>
