<?xml version="1.0" encoding="utf-8"?>
<!-- Generator: Adobe Illustrator 21.1.0, SVG Export Plug-In . SVG Version: 6.00 Build 0)  -->
<svg version="1.1" id="Layer_1" xmlns="http://www.w3.org/2000/svg" xmlns:xlink="http://www.w3.org/1999/xlink" x="0px" y="0px"
	 viewBox="0 0 26.7 44.7" style="enable-background:new 0 0 26.7 44.7;" xml:space="preserve">
<style type="text/css">
	.st0{fill:none;}
	.st1{fill:#F7931E;}
</style>
<title></title>
<g>
	<path class="st0" d="M19.1,3.5C13.7,0.4,6.7,2.2,3.6,7.6c-2.1,3.5-2.1,7.9,0,11.5l0.1,0.1C3.8,19.5,4,19.8,4.2,20
		c1.4,2.2,3.7,6.4,3.4,9.6c0,0.8,0.5,1.5,1.1,1.8l0.5,0.3v1.9h4h4.9v-1.2l0.5-0.3c0.5-0.3,0.5-1.9,0.5-2.5c-0.3-3.1,2-7.2,3.4-9.4
		c0.2-0.3,0.4-0.6,0.6-0.9l0.1-0.1C26.3,13.7,24.5,6.7,19.1,3.5z"/>
	<path class="st1" d="M25.2,7.2c-3.4-6.5-11.5-9.1-18-5.7C0.6,4.9-1.9,13,1.5,19.5l0,0.1l0.5,0.7c0.2,0.3,0.4,0.6,0.6,0.9
		c1,1.6,3.3,5.6,3.1,8.3c0,1.3,0.6,2.5,1.7,3.3v2.8h1l4.9,0h5.9h1v-2.2c1-1,1-2.8,1-4c-0.3-2.7,2-6.6,3-8.2c0.2-0.3,0.5-0.6,0.6-0.9
		l0.5-0.8v-0.1C27.2,15.6,27.2,11,25.2,7.2z M23.2,19.1l-0.1,0.1c-0.2,0.3-0.4,0.6-0.6,0.9c-1.4,2.2-3.7,6.3-3.4,9.4
		c0,0.6,0,2.3-0.5,2.5l-0.5,0.3v1.2h-4.9h-4v-1.9l-0.5-0.3c-0.7-0.4-1.1-1.1-1.1-1.8c0.3-3.2-2-7.3-3.4-9.6
		c-0.2-0.3-0.4-0.5-0.6-0.8l-0.1-0.1c-2.1-3.5-2.1-7.9,0-11.5c3.2-5.4,10.1-7.2,15.5-4.1C24.5,6.7,26.3,13.7,23.2,19.1z"/>
	<rect x="6.9" y="36.7" class="st1" width="13" height="2"/>
	<rect x="6.9" y="39.6" class="st1" width="13" height="2"/>
	<rect x="9.9" y="42.7" class="st1" width="7" height="2"/>
</g>
</svg>
