<?xml version="1.0" encoding="utf-8"?>
<!-- Generator: Adobe Illustrator 21.1.0, SVG Export Plug-In . SVG Version: 6.00 Build 0)  -->
<svg version="1.1" id="Layer_1" xmlns="http://www.w3.org/2000/svg" xmlns:xlink="http://www.w3.org/1999/xlink" x="0px" y="0px"
	 viewBox="0 0 32 32" style="enable-background:new 0 0 32 32;" xml:space="preserve">
<style type="text/css">
	.st0{fill:none;}
</style>
<title></title>
<g>
	<circle class="st0" cx="28" cy="10" r="1"/>
	<path class="st0" d="M1,26h23V7H1V26z M3,11.5C3,10.1,4.1,9,5.5,9h14c1.4,0,2.5,1.1,2.5,2.5v10c0,1.4-1.1,2.5-2.5,2.5h-14
		C4.1,24,3,22.9,3,21.5V11.5z"/>
	<path class="st0" d="M5.5,23h14c0.8,0,1.5-0.7,1.5-1.5v-10c0-0.8-0.7-1.5-1.5-1.5h-14C4.7,10,4,10.7,4,11.5v10
		C4,22.3,4.7,23,5.5,23z"/>
	<path class="st0" d="M25,26h6V7h-6V26z M28,22c-0.6,0-1-0.4-1-1s0.4-1,1-1s1,0.4,1,1S28.6,22,28,22z M28,18c-0.6,0-1-0.4-1-1
		s0.4-1,1-1s1,0.4,1,1S28.6,18,28,18z M28,8c1.1,0,2,0.9,2,2s-0.9,2-2,2s-2-0.9-2-2S26.9,8,28,8z"/>
	<path d="M0,6v21h32V6H0z M24,26H1V7h23V26z M31,26h-6V7h6V26z"/>
	<path d="M28,12c1.1,0,2-0.9,2-2s-0.9-2-2-2s-2,0.9-2,2S26.9,12,28,12z M28,9c0.6,0,1,0.4,1,1s-0.4,1-1,1s-1-0.4-1-1S27.4,9,28,9z"
		/>
	<circle cx="28" cy="17" r="1"/>
	<circle cx="28" cy="21" r="1"/>
	<path d="M5.5,24h14c1.4,0,2.5-1.1,2.5-2.5v-10c0-1.4-1.1-2.5-2.5-2.5h-14C4.1,9,3,10.1,3,11.5v10C3,22.9,4.1,24,5.5,24z M4,11.5
		C4,10.7,4.7,10,5.5,10h14c0.8,0,1.5,0.7,1.5,1.5v10c0,0.8-0.7,1.5-1.5,1.5h-14C4.7,23,4,22.3,4,21.5V11.5z"/>
</g>
</svg>
