<?xml version="1.0" encoding="utf-8"?>
<!-- Generator: Adobe Illustrator 21.1.0, SVG Export Plug-In . SVG Version: 6.00 Build 0)  -->
<svg version="1.1" id="Layer_1" xmlns="http://www.w3.org/2000/svg" xmlns:xlink="http://www.w3.org/1999/xlink" x="0px" y="0px"
	 viewBox="0 0 202 152" style="enable-background:new 0 0 202 152;" xml:space="preserve">
<style type="text/css">
	.st0{fill:#010101;}
</style>
<g>
	<path class="st0" d="M79.3,35.4C93.2,34,83,18.6,83,18.6S75.6,7.5,86.2,3.9C80.3,4.6,76.6,9.8,80,18C83.3,26.3,88,31.2,79.3,35.4z"
		/>
	<path class="st0" d="M112.4,27.6c10.7-0.9,2.8-11.3,2.8-11.3s-5.7-7.5,2.5-9.9c-4.5,0.5-7.3,4-4.7,9.5
		C115.6,21.5,119.1,24.7,112.4,27.6z"/>
	<path class="st0" d="M100.8,26.5c0,0-9.1,8.9,3.8,10.6c-8.2-3.1-4-5.9-1.1-10.7c2.9-4.9-0.6-8.3-6-9.1
		C107.3,20.1,100.8,26.5,100.8,26.5z"/>
	<g>
		<path class="st0" d="M45.2,64.4c-1.8,0-3.3,2.1-3.3,4.7s1.5,4.7,3.3,4.7c0.8,0,1.5-0.4,2.1-1.1h3.5v-7.3h-3.5
			C46.7,64.8,46,64.4,45.2,64.4z"/>
		<path class="st0" d="M46.3,114.7c-1.8,0-3.3,2.1-3.3,4.7s1.5,4.7,3.3,4.7c0.8,0,1.5-0.4,2.1-1.1h2.4v-7.3h-2.4
			C47.8,115.1,47.1,114.7,46.3,114.7z"/>
		<path class="st0" d="M81.5,55.7c0-4.2-2.4-7.6-5.4-7.6h-1.3c-3,0-5.4,3.4-5.4,7.6V134c0,4.2,2.4,7.6,5.4,7.6h1.3
			c3,0,5.4-3.4,5.4-7.6v-11h3.1v-7.3h-3.1v-43h3.1v-7.3h-3.1V55.7z"/>
		<path class="st0" d="M98.3,55.7c0-4.2-2.4-7.6-5.4-7.6h-1.3c-3,0-5.4,3.4-5.4,7.6V134c0,4.2,2.4,7.6,5.4,7.6h1.3
			c3,0,5.4-3.4,5.4-7.6v-11h3.1v-7.3h-3.1v-43h3.1v-7.3h-3.1V55.7z"/>
		<path class="st0" d="M115.2,55.7c0-4.2-2.4-7.6-5.4-7.6h-1.3c-3,0-5.4,3.4-5.4,7.6V134c0,4.2,2.4,7.6,5.4,7.6h1.3
			c3,0,5.4-3.4,5.4-7.6v-11h3.1v-7.3h-3.1v-43h3.1v-7.3h-3.1V55.7z"/>
		<path class="st0" d="M132.1,55.7c0-4.2-2.4-7.6-5.4-7.6h-1.3c-3,0-5.4,3.4-5.4,7.6V134c0,4.2,2.4,7.6,5.4,7.6h1.3
			c3,0,5.4-3.4,5.4-7.6v-11h3.1v-7.3h-3.1v-43h3.1v-7.3h-3.1V55.7z"/>
		<path class="st0" d="M149,72.8h2.2c1.1,2.1,3.2,3.6,5.6,3.6c3.6,0,6.5-3.2,6.5-7.2s-2.9-7.2-6.5-7.2c-2.4,0-4.5,1.4-5.6,3.6H149
			v-9.7c0-4.2-2.4-7.6-5.4-7.6h-1.3c-3,0-5.4,3.4-5.4,7.6v78.3c0,4.2,2.4,7.6,5.4,7.6h1.3c3,0,5.4-3.4,5.4-7.6v-11h2.5
			c0.6,0.7,1.3,1.1,2.1,1.1c1.8,0,3.3-2.1,3.3-4.7s-1.5-4.7-3.3-4.7c-0.8,0-1.5,0.4-2.1,1.1H149V72.8z"/>
		<path class="st0" d="M64.6,55.7c0-4.2-2.4-7.6-5.4-7.6h-1.4c-3,0-5.4,3.4-5.4,7.6V134c0,4.2,2.4,7.6,5.4,7.6h1.3
			c3,0,5.4-3.4,5.4-7.6v-11h3.1v-7.3h-3.1v-43h3.1v-7.3h-3.1v-9.7H64.6z"/>
	</g>
</g>
</svg>
