<?xml version="1.0" encoding="utf-8"?>
<!-- Generator: Adobe Illustrator 21.1.0, SVG Export Plug-In . SVG Version: 6.00 Build 0)  -->
<svg version="1.1" id="Layer_1" xmlns="http://www.w3.org/2000/svg" xmlns:xlink="http://www.w3.org/1999/xlink" x="0px" y="0px"
	 viewBox="0 0 52 52" style="enable-background:new 0 0 52 52;" xml:space="preserve">
<style type="text/css">
	.st0{fill:none;}
</style>
<g>
	<rect x="17" y="8" class="st0" width="18" height="2"/>
	<path class="st0" d="M14,48h24V20H14V48z M36,46H16v-2h20V46z M36,41H16v-2h20V41z M36,36H16v-2h20V36z M20,24c2.2,0,4,1.8,4,4
		s-1.8,4-4,4s-4-1.8-4-4S17.8,24,20,24z"/>
	<path class="st0" d="M14,18h24V4H14V18z M18,16h-2v-2h2V16z M22,16h-2v-2h2V16z M15,6h22v6H15V6z"/>
	<circle class="st0" cx="20" cy="28" r="2"/>
	<path d="M12,2v48h28V2H12z M38,48H14V20h24V48z M38,18H14V4h24V18z"/>
	<path d="M20,32c2.2,0,4-1.8,4-4s-1.8-4-4-4s-4,1.8-4,4S17.8,32,20,32z M20,26c1.1,0,2,0.9,2,2s-0.9,2-2,2s-2-0.9-2-2S18.9,26,20,26
		z"/>
	<path d="M37,6H15v6h22V6z M35,10H17V8h18V10z"/>
	<rect x="16" y="14" width="2" height="2"/>
	<rect x="20" y="14" width="2" height="2"/>
	<rect x="16" y="34" width="20" height="2"/>
	<rect x="16" y="39" width="20" height="2"/>
	<rect x="16" y="44" width="20" height="2"/>
</g>
</svg>
