<?xml version="1.0" encoding="utf-8"?>
<!-- Svg Vector Icons : http://www.onlinewebfonts.com/icon -->
<!DOCTYPE svg PUBLIC "-//W3C//DTD SVG 1.1//EN" "http://www.w3.org/Graphics/SVG/1.1/DTD/svg11.dtd">
<svg version="1.1" xmlns="http://www.w3.org/2000/svg" xmlns:xlink="http://www.w3.org/1999/xlink" x="0px" y="0px" viewBox="0 0 1000 1000" enable-background="new 0 0 1000 1000" xml:space="preserve">
<metadata> Svg Vector Icons : http://www.onlinewebfonts.com/icon </metadata>
<g><path d="M944.4,591.2v-45.6H990v45.6H944.4z M915.8,475.6c-1.7,0.9-3.5,1.6-5.5,1.6h-91.2c-6.3,0-11.4-5.1-11.4-11.4V443c0-6.3,5.1-11.4,11.4-11.4l79.8,0c25.2,0,45.6-20.4,45.6-45.6s-20.4-45.6-45.6-45.6v-45.6c50.3,0,91.2,40.8,91.2,91.2C990,430.6,958,467.6,915.8,475.6z M807.7,203.6h45.6v45.6h-45.6V203.6L807.7,203.6z M921.6,705.2c0,88.1-71.4,159.6-159.5,159.6s-159.5-71.5-159.5-159.6c0-7.8,0.7-15.3,1.8-22.8h46.1c-1.5,7.4-2.3,15-2.3,22.8c0,63,51,114,114,114c62.9,0,114-51,114-114c0-63-51-114-114-114c-7.8,0-15.4,0.8-22.8,2.3v-2.3H545.6c-6.3,0-11.4-5.1-11.4-11.4V557c0-6.3,5.1-11.4,11.4-11.4h182.3c2.6,0,4.9,1,6.8,2.5c8.9-1.5,18-2.5,27.4-2.5C850.2,545.6,921.6,617.1,921.6,705.2L921.6,705.2z M648.1,454.4c-3.1,0-6.1-0.2-9.1-0.5c-0.8,0.2-1.5,0.5-2.3,0.5H363.3c-6.3,0-11.4-5.1-11.4-11.4v-22.8c0-6.3,5.1-11.4,11.4-11.4h262.1v-4.2c7.2,2.5,14.8,4.2,22.8,4.2c37.8,0,68.4-30.6,68.4-68.4c0-37.8-30.6-68.4-68.4-68.4c-29.7,0-54.8,19.1-64.2,45.6h-47.5c10.6-52,56.5-91.2,111.7-91.2c62.9,0,114,51,114,114C762.1,403.4,711.1,454.4,648.1,454.4L648.1,454.4z M488.6,135.2h45.6v45.6h-45.6V135.2z M374.7,272h45.6v45.6h-45.6V272z M294.9,454.4h-22.8c-6.3,0-11.4-5.1-11.4-11.4v-22.8c0-6.3,5.1-11.4,11.4-11.4h22.8c6.3,0,11.4,5.1,11.4,11.4V443C306.3,449.3,301.2,454.4,294.9,454.4z M260.7,226.4h45.6V272h-45.6V226.4z M203.7,454.4H67c-6.3,0-11.4-5.1-11.4-11.4v-22.8c0-6.3,5.1-11.4,11.4-11.4h136.7c6.3,0,11.4,5.1,11.4,11.4V443C215.1,449.3,210,454.4,203.7,454.4z M78.4,557v22.8c0,6.3-5.1,11.4-11.4,11.4H44.2c-6.3,0-11.4-5.1-11.4-11.4V557c0-6.3,5.1-11.4,11.4-11.4H67C73.3,545.6,78.4,550.7,78.4,557L78.4,557z M283.5,693.8v22.8c0,6.3-5.1,11.4-11.4,11.4H21.4c-6.3,0-11.4-5.1-11.4-11.4v-22.8c0-6.3,5.1-11.4,11.4-11.4h250.7C278.4,682.4,283.5,687.5,283.5,693.8L283.5,693.8z M340.5,682.4h22.8c6.3,0,11.4,5.1,11.4,11.4v22.8c0,6.3-5.1,11.4-11.4,11.4h-22.8c-6.3,0-11.4-5.1-11.4-11.4v-22.8C329.1,687.5,334.2,682.4,340.5,682.4L340.5,682.4z M124,579.8V557c0-6.3,5.1-11.4,11.4-11.4H386c6.3,0,11.4,5.1,11.4,11.4v22.8c0,6.3-5.1,11.4-11.4,11.4H135.4C129.1,591.2,124,586.1,124,579.8z M454.4,545.6h22.8c6.3,0,11.4,5.1,11.4,11.4v22.8c0,6.3-5.1,11.4-11.4,11.4h-22.8c-6.3,0-11.4-5.1-11.4-11.4V557C443,550.7,448.1,545.6,454.4,545.6z"/></g>
</svg>