<?xml version="1.0" encoding="utf-8"?>
<!-- Svg Vector Icons : http://www.onlinewebfonts.com/icon -->
<!DOCTYPE svg PUBLIC "-//W3C//DTD SVG 1.1//EN" "http://www.w3.org/Graphics/SVG/1.1/DTD/svg11.dtd">
<svg version="1.1" xmlns="http://www.w3.org/2000/svg" xmlns:xlink="http://www.w3.org/1999/xlink" x="0px" y="0px" viewBox="0 0 1000 1000" enable-background="new 0 0 1000 1000" xml:space="preserve">
<metadata> Svg Vector Icons : http://www.onlinewebfonts.com/icon </metadata>
<g><g transform="translate(0.000000,512.000000) scale(0.100000,-0.100000)"><path d="M4659.7,5004.1c-1397.8-134-2606-1057-3096.2-2362.9C1065.6,1310.5,1364.3-156.3,2348.5-1196c473-501.7,1206.3-911.4,1876.5-1049.3l162.8-34.5v-1196.8c1.9-1263.8-1.9-1231.2,90-1279.1c57.4-32.6,988-32.6,1045.5,0c91.9,47.9,88.1,15.3,90,1281v1198.7l168.5,34.5c379.1,74.7,871.3,281.5,1227.4,513.2C8179.1-960.5,8810.9,387.6,8648.2,1770.1C8483.5,3187,7512.7,4378,6158.9,4829.9C5678.3,4990.8,5151.7,5052,4659.7,5004.1z M5297.3,4699.7c599.3-57.4,1170-268.1,1656.3-608.9c231.7-162.8,622.3-553.4,790.8-788.9c153.2-216.4,373.4-649.1,453.8-894.2c325.5-988,176.2-2081.4-400.2-2937.3c-505.5-752.5-1254.2-1248.4-2165.6-1436.1c-191.5-40.2-271.9-45.9-631.9-45.9c-352.3,0-442.3,7.6-628.1,44C2898-1670.8,1814.3-493.2,1651.5,988.8c-51.7,465.3,1.9,967,151.3,1418.9c80.4,245.1,300.6,677.9,453.8,894.2c168.5,235.5,559.1,626.1,790.8,788.9C3706.1,4554.2,4516,4772.5,5297.3,4699.7z M5306.8-3399.9v-1072.3h-306.4h-306.4v1072.3v1072.3h306.4h306.4V-3399.9z"/><path d="M5000.5,4393.3c-365.7-36.4-495.9-90-620.4-262.3c-114.9-157-155.1-319.8-155.1-608.9c1.9-287.2,34.5-463.4,143.6-794.6c40.2-120.6,67-222.1,61.3-225.9c-7.7-1.9-67-38.3-130.2-80.4c-162.8-105.3-348.5-308.3-434.7-474.9l-72.8-137.9h-80.4c-113,0-279.6,46-413.6,114.9c-160.8,80.4-337,218.3-624.2,488.3c-333.2,314-471,375.3-584,262.3c-107.2-107.2-141.7-344.7-143.6-942.1c0-645.3,38.3-832.9,204.9-990c151.3-143.6,348.5-204.9,666.3-204.9c277.6,0,450,30.6,800.4,145.5c130.2,42.1,239.3,72.8,241.3,68.9c1.9-3.8,28.7-47.9,59.4-101.5c80.4-141.7,306.4-354.2,455.7-432.7l128.3-65.1V35.2c0-302.5-143.6-543.8-633.8-1057c-294.9-308.3-342.7-427-220.2-549.5c105.3-105.3,490.2-153.2,1081.9-137.9c216.4,5.7,448,21.1,513.2,32.6c235.5,45.9,384.9,180,486.4,436.6c40.2,97.6,44,141.7,44,405.9c0,321.7-32.6,509.3-157,855.9l-55.5,157l116.8,72.8c151.3,93.8,348.5,294.9,432.7,442.3l67,118.7h137.9c296.8,0,526.6-136,1020.6-603.2C7608.4-49,7717.6-117.9,7813.3-96.9c57.4,11.5,114.9,65.1,155.1,141.7c105.3,204.9,124.5,1282.9,28.7,1602.7c-84.3,281.5-329.4,427-746.8,442.3c-317.8,13.4-540-28.7-1045.5-197.2c-21.1-7.7-51.7,24.9-103.4,116.8c-93.8,158.9-323.6,381-482.5,465.3l-120.6,63.2v118.7c1.9,268.1,158.9,541.9,555.3,961.2c283.4,300.6,363.8,409.8,363.8,499.8c0,68.9-55.5,149.4-134,189.6C6135.9,4383.8,5408.3,4431.6,5000.5,4393.3z M5963.6,4065.9l72.8-19.2l-204.9-214.5c-367.6-383-543.8-660.6-584-915.3c-11.5-76.6-17.2-174.2-13.4-216.4l9.6-78.5l-250.8,1.9L4742,2626l-80.4,237.4c-141.7,415.5-172.3,752.5-91.9,974.6c61.3,172.3,151.3,218.3,478.7,250.8C5245.6,4108,5869.8,4092.7,5963.6,4065.9z M2534.2,2124.3c400.2-384.9,660.6-520.8,1093.3-574.4l90-11.5l3.8-201.1c1.9-109.1,3.8-218.3,3.8-241.3c1.9-34.5-21.1-49.8-141.7-93.8c-275.7-101.5-547.6-158.9-765.9-158.9c-356.2-1.9-488.3,78.5-538.1,325.5c-44,220.2-30.6,1175.7,15.3,1175.7C2300.6,2344.5,2407.8,2244.9,2534.2,2124.3z M5247.5,2296.6c342.7-90,631.9-383,708.5-718c30.6-130.2,24.9-381-9.6-499.8c-70.8-237.4-218.3-434.7-430.8-572.5c-298.7-191.5-733.4-191.5-1034,1.9c-212.5,137.9-356.2,331.3-427,570.6c-44.1,149.4-40.2,407.9,7.7,561c97.7,315.9,375.3,578.3,698.9,658.7C4893.3,2331.1,5123,2331.1,5247.5,2296.6z M7529.9,1735.6c122.6-59.4,153.2-101.5,183.8-239.3c51.7-237.4,49.8-1143.1-1.9-1196.7c-5.7-3.8-107.2,80.4-225.9,191.5c-287.2,268.1-465.3,402.1-658.7,497.9c-149.4,74.7-174.3,80.4-358.1,88.1l-195.3,7.7v247v245.1l229.8,76.6c344.7,113,465.3,135.9,718,130.2C7403.6,1779.6,7457.2,1770.1,7529.9,1735.6z M5314.5-72c143.6-388.7,199.1-792.7,137.9-1018.7c-46-170.4-107.2-237.4-250.8-271.9c-216.4-55.5-1156.5-55.5-1210.2,0c-5.7,5.8,80.4,107.2,189.6,226c266.2,287.2,402.1,465.3,495.9,656.8c70.8,143.6,78.5,174.2,88.1,346.6l11.5,189.6l245.1,1.9h245.1L5314.5-72z"/><path d="M4810.9,2103.2c-434.7-116.8-687.4-559.1-559.1-980.4c68.9-231.7,220.2-398.3,451.9-505.5c80.4-36.4,128.3-44,296.8-44c168.5,0,216.4,7.7,296.8,44c153.2,70.8,239.4,139.8,329.4,260.4c335.1,453.8,107.2,1083.8-444.2,1227.4C5044.5,2139.6,4946.9,2139.6,4810.9,2103.2z M5203.5,1777.7c312.1-149.4,367.6-572.5,103.4-796.6c-227.9-197.2-591.7-124.5-731.5,145.5c-63.2,116.8-61.3,315.9,3.8,442.3c51.7,99.6,178.1,203,294.9,239.3C4956.4,1833.2,5117.3,1817.9,5203.5,1777.7z"/></g></g>
</svg>