<?xml version="1.0" ?><svg height="36" id="svg4488" version="1.1" width="36" xmlns="http://www.w3.org/2000/svg" xmlns:cc="http://creativecommons.org/ns#" xmlns:dc="http://purl.org/dc/elements/1.1/" xmlns:inkscape="http://www.inkscape.org/namespaces/inkscape" xmlns:rdf="http://www.w3.org/1999/02/22-rdf-syntax-ns#" xmlns:sodipodi="http://sodipodi.sourceforge.net/DTD/sodipodi-0.dtd" xmlns:svg="http://www.w3.org/2000/svg"><defs id="defs4490"/><g id="layer1" transform="translate(0,-1016.3622)"><path d="m 11.82227,1019.3622 c -0.4291,0 -0.82227,0.4058 -0.82227,1 l 0,8 14,0 0,-8 c 0,-0.5942 -0.39509,-1 -0.82422,-1 l -12.35351,0 z m 10.68359,1 1,0 c 0.67616,-0.01 0.67616,1.01 0,1 l -1,0 c -0.67616,0.01 -0.67616,-1.01 0,-1 z m -10.01367,1 0,0.01 c 0.28146,0 0.51081,0.2244 0.50781,0.5059 l 0,4 c 0.005,0.3381 -0.24761,0.5058 -0.5,0.5058 -0.25239,0 -0.5,-0.012 -0.5,-0.012 l 0,-4.9922 c 0,0 0.21684,-0.014 0.49219,-0.014 z m -1.49219,8 0,16 c 0,0.5942 0.39317,1 0.82227,1 l 12.35351,0 c 0.42913,0 0.82422,-0.4058 0.82422,-1 l 0,-16 -14,0 z m 1.49219,3 0,0.01 c 0.28146,0 0.51081,0.2244 0.50781,0.5059 l 0,4 c 0.005,0.3381 -0.24761,0.5058 -0.5,0.5058 -0.25239,0 -0.5,-0.012 -0.5,-0.012 l 0,-4.9922 c 0,0 0.21684,-0.014 0.49219,-0.014 z m 0.008,15 0,1 11,0 0,-1 -11,0 z" id="rect4385" style="font-size:medium;font-style:normal;font-variant:normal;font-weight:normal;font-stretch:normal;text-indent:0;text-align:start;text-decoration:none;line-height:normal;letter-spacing:normal;word-spacing:normal;text-transform:none;direction:ltr;block-progression:tb;writing-mode:lr-tb;text-anchor:start;baseline-shift:baseline;color:#000000;fill:#000000;fill-opacity:1;fill-rule:nonzero;stroke:none;visibility:visible;display:inline;overflow:visible;enable-background:accumulate;font-family:sans-serif"/></g></svg>