<?xml version="1.0" encoding="utf-8"?>
<!-- Generator: Adobe Illustrator 21.1.0, SVG Export Plug-In . SVG Version: 6.00 Build 0)  -->
<svg version="1.1" id="Layer_1" xmlns="http://www.w3.org/2000/svg" xmlns:xlink="http://www.w3.org/1999/xlink" x="0px" y="0px"
	 viewBox="0 0 128 128" style="enable-background:new 0 0 128 128;" xml:space="preserve">
<style type="text/css">
	.st0{fill:none;}
	.st1{fill:#505070;}
</style>
<g id="Layer_1_1_">
</g>
<g>
	<path class="st0" d="M96,13c0-1.1-0.9-2-2-2H34c-1.1,0-2,0.9-2,2v49h64V13z M76.3,39.8c1,0.6,1.3,1.8,0.7,2.7c-0.4,0.6-1,1-1.7,1
		c-0.3,0-0.7-0.1-1-0.3L66,38.5V48c0,1.1-0.9,2-2,2s-2-0.9-2-2v-9.5l-8.3,4.8c-0.3,0.2-0.7,0.3-1,0.3c-0.7,0-1.4-0.4-1.7-1
		c-0.6-1-0.2-2.2,0.7-2.7L60,35l-8.3-4.8c-1-0.6-1.3-1.8-0.7-2.7c0.6-1,1.8-1.3,2.7-0.7l8.3,4.8V22c0-1.1,0.9-2,2-2s2,0.9,2,2v9.5
		l8.3-4.8c1-0.6,2.2-0.2,2.7,0.7c0.6,1,0.2,2.2-0.7,2.7L68,35L76.3,39.8z"/>
	<path class="st0" d="M32,115c0,1.1,0.9,2,2,2h60c1.1,0,2-0.9,2-2V66H32V115z M88,74c0-1.1,0.9-2,2-2s2,0.9,2,2v10c0,1.1-0.9,2-2,2
		s-2-0.9-2-2V74z"/>
	<path class="st1" d="M94,7H34c-3.3,0-6,2.7-6,6v102c0,3.3,2.7,6,6,6h60c3.3,0,6-2.7,6-6V13C100,9.7,97.3,7,94,7z M32,13
		c0-1.1,0.9-2,2-2h60c1.1,0,2,0.9,2,2v49H32V13z M96,115c0,1.1-0.9,2-2,2H34c-1.1,0-2-0.9-2-2V66h64V115z"/>
	<path class="st1" d="M90,86c1.1,0,2-0.9,2-2V74c0-1.1-0.9-2-2-2s-2,0.9-2,2v10C88,85.1,88.9,86,90,86z"/>
	<path class="st1" d="M77,27.5c-0.6-1-1.8-1.3-2.7-0.7L66,31.5V22c0-1.1-0.9-2-2-2s-2,0.9-2,2v9.5l-8.3-4.8c-1-0.6-2.2-0.2-2.7,0.7
		c-0.6,1-0.2,2.2,0.7,2.7L60,35l-8.3,4.8c-1,0.6-1.3,1.8-0.7,2.7c0.4,0.6,1,1,1.7,1c0.3,0,0.7-0.1,1-0.3l8.3-4.8V48c0,1.1,0.9,2,2,2
		s2-0.9,2-2v-9.5l8.3,4.8c0.3,0.2,0.7,0.3,1,0.3c0.7,0,1.4-0.4,1.7-1c0.6-1,0.2-2.2-0.7-2.7L68,35l8.3-4.8
		C77.2,29.7,77.5,28.5,77,27.5z"/>
</g>
<g id="washer">
</g>
<g id="tv">
</g>
<g id="microwawe">
</g>
<g id="vacuum_cleaner">
</g>
<g id="Gift">
</g>
<g id="umbrella">
</g>
<g id="rocket">
</g>
<g id="basket">
</g>
<g id="shopping">
</g>
<g id="email">
</g>
<g id="message">
</g>
<g id="delivery">
</g>
<g id="store">
</g>
<g id="label">
</g>
<g id="phone">
</g>
<g id="imac">
</g>
<g id="laptop">
</g>
<g id="heart_like">
</g>
<g id="game">
</g>
<g id="wallet">
</g>
<g id="camera">
</g>
<g id="battery">
</g>
<g id="shoes">
</g>
<g id="t-shirt">
</g>
<g id="pencil">
</g>
<g id="people">
</g>
<g id="statistics">
</g>
<g id="blog">
</g>
<g id="rock">
</g>
<g id="like">
</g>
<g id="dislike">
</g>
<g id="speaker">
</g>
<g id="pc">
</g>
<g id="glasses">
</g>
<g id="headphones">
</g>
<g id="player">
</g>
<g id="book">
</g>
<g id="transfer">
</g>
<g id="mouse">
</g>
<g id="package">
</g>
<g id="exellent">
</g>
<g id="card">
</g>
<g id="induction">
</g>
<g id="revers_camera">
</g>
<g id="flesh_drive">
</g>
<g id="time">
</g>
<g id="sale">
</g>
<g id="tablet">
</g>
<g id="search">
</g>
</svg>
