<?xml version="1.0" encoding="utf-8"?>
<!-- Generator: Adobe Illustrator 21.1.0, SVG Export Plug-In . SVG Version: 6.00 Build 0)  -->
<svg version="1.1" id="Layer_1" xmlns="http://www.w3.org/2000/svg" xmlns:xlink="http://www.w3.org/1999/xlink" x="0px" y="0px"
	 viewBox="0 0 300 300" style="enable-background:new 0 0 300 300;" xml:space="preserve">
<style type="text/css">
	.st0{fill:none;}
</style>
<g>
	<rect x="62.5" y="160.5" class="st0" width="137" height="20"/>
	<path class="st0" d="M252,105.5H48c-6.3,0-11.5,5.2-11.5,11.5v52c0,6.3,5.2,11.5,11.5,11.5h7.5V157c0-1.9,1.6-3.5,3.5-3.5h144
		c1.9,0,3.5,1.6,3.5,3.5v23.5H252c6.3,0,11.5-5.2,11.5-11.5v-52C263.5,110.7,258.3,105.5,252,105.5z M58.5,118.5h185
		c1.9,0,3.5,1.6,3.5,3.5s-1.6,3.5-3.5,3.5h-185c-1.9,0-3.5-1.6-3.5-3.5S56.6,118.5,58.5,118.5z M58.5,141.5c-1.9,0-3.5-1.6-3.5-3.5
		s1.6-3.5,3.5-3.5h185c1.9,0,3.5,1.6,3.5,3.5s-1.6,3.5-3.5,3.5H58.5z M223.2,171c-2.8,0-5-2.2-5-5s2.2-5,5-5c2.8,0,5,2.2,5,5
		S225.9,171,223.2,171z M243.2,171c-2.8,0-5-2.2-5-5s2.2-5,5-5c2.8,0,5,2.2,5,5S245.9,171,243.2,171z"/>
	<path d="M252,98.5H48c-10.2,0-18.5,8.3-18.5,18.5v52c0,10.2,8.3,18.5,18.5,18.5h11h144h49c10.2,0,18.5-8.3,18.5-18.5v-52
		C270.5,106.8,262.2,98.5,252,98.5z M62.5,180.5v-20h137v20H62.5z M263.5,169c0,6.3-5.2,11.5-11.5,11.5h-45.5V157
		c0-1.9-1.6-3.5-3.5-3.5H59c-1.9,0-3.5,1.6-3.5,3.5v23.5H48c-6.3,0-11.5-5.2-11.5-11.5v-52c0-6.3,5.2-11.5,11.5-11.5h204
		c6.3,0,11.5,5.2,11.5,11.5V169z"/>
	<circle cx="223.2" cy="166" r="5"/>
	<circle cx="243.2" cy="166" r="5"/>
	<path d="M58.5,125.5h185c1.9,0,3.5-1.6,3.5-3.5s-1.6-3.5-3.5-3.5h-185c-1.9,0-3.5,1.6-3.5,3.5S56.6,125.5,58.5,125.5z"/>
	<path d="M247,138c0-1.9-1.6-3.5-3.5-3.5h-185c-1.9,0-3.5,1.6-3.5,3.5s1.6,3.5,3.5,3.5h185C245.4,141.5,247,139.9,247,138z"/>
	<path d="M71,201c-1.9,0-3.5,1.6-3.5,3.5v18c0,1.9,1.6,3.5,3.5,3.5s3.5-1.6,3.5-3.5v-18C74.5,202.6,72.9,201,71,201z"/>
	<path d="M101,201c-1.9,0-3.5,1.6-3.5,3.5v28c0,1.9,1.6,3.5,3.5,3.5s3.5-1.6,3.5-3.5v-28C104.5,202.6,102.9,201,101,201z"/>
	<path d="M131,201c-1.9,0-3.5,1.6-3.5,3.5v38c0,1.9,1.6,3.5,3.5,3.5s3.5-1.6,3.5-3.5v-38C134.5,202.6,132.9,201,131,201z"/>
	<path d="M161,201c-1.9,0-3.5,1.6-3.5,3.5v28c0,1.9,1.6,3.5,3.5,3.5s3.5-1.6,3.5-3.5v-28C164.5,202.6,162.9,201,161,201z"/>
	<path d="M191,201c-1.9,0-3.5,1.6-3.5,3.5v18c0,1.9,1.6,3.5,3.5,3.5s3.5-1.6,3.5-3.5v-18C194.5,202.6,192.9,201,191,201z"/>
</g>
</svg>
