<?xml version="1.0" encoding="utf-8"?>
<!-- Generator: Adobe Illustrator 21.1.0, SVG Export Plug-In . SVG Version: 6.00 Build 0)  -->
<svg version="1.1" id="Livello_1" xmlns="http://www.w3.org/2000/svg" xmlns:xlink="http://www.w3.org/1999/xlink" x="0px" y="0px"
	 viewBox="0 0 141.8 82.6" style="enable-background:new 0 0 141.8 82.6;" xml:space="preserve">
<g id="Livello_11">
	<path d="M92,63.9H3.7V4.1H92V63.9z M95.7,65.8L95.7,65.8V2.3c0-1-0.8-1.9-1.8-1.9h-92C0.8,0.4,0,1.2,0,2.3v63.5
		c0,1,0.8,1.9,1.8,1.9h35v11.2H22.1c-1,0-1.8,0.8-1.8,1.9c0,1,0.8,1.9,1.8,1.9h0h51.5c1,0,1.8-0.8,1.8-1.9c0-1-0.8-1.9-1.8-1.9H58.9
		V67.6h35C94.9,67.6,95.7,66.8,95.7,65.8 M138.9,29.5h-29.1v-5.9h29.1L138.9,29.5L138.9,29.5z M138.9,17.7h-29.1v-5.9h29.1
		L138.9,17.7L138.9,17.7z M122.1,53.3c0-1.3,1-2.3,2.3-2.3c1.3,0,2.3,1,2.3,2.3c0,1.3-1,2.3-2.3,2.3
		C123.1,55.6,122.1,54.6,122.1,53.3 M122.7,60c0-1,0.8-1.7,1.7-1.7c1,0,1.7,0.8,1.7,1.7c0,1-0.8,1.8-1.7,1.8
		C123.4,61.8,122.7,61,122.7,60 M141.8,79.6V2.9c0-1.6-1.3-2.9-2.9-2.9h-29.1c-1.6,0-2.9,1.3-2.9,2.9v76.7c0,1.6,1.3,2.9,2.9,2.9
		h29.1C140.5,82.6,141.8,81.3,141.8,79.6"/>
</g>
<g id="Livello_1_1_">
</g>
</svg>
