<?xml version="1.0" encoding="utf-8"?>
<!-- Generator: Adobe Illustrator 21.1.0, SVG Export Plug-In . SVG Version: 6.00 Build 0)  -->
<svg version="1.1" id="Layer_1" xmlns="http://www.w3.org/2000/svg" xmlns:xlink="http://www.w3.org/1999/xlink" x="0px" y="0px"
	 viewBox="0 0 512 512" style="enable-background:new 0 0 512 512;" xml:space="preserve">
<style type="text/css">
	.st0{fill:none;}
</style>
<g>
	<path class="st0" d="M263.7,448.2h-15.5c-6.7,0-12.1,5.4-12.1,12.1v15.5c0,6.7,5.4,12.1,12.1,12.1h15.5c6.7,0,12.1-5.4,12.1-12.1
		v-15.5C275.8,453.6,270.4,448.2,263.7,448.2z"/>
	<path class="st0" d="M199.6,458.6h-35.3c-5.2,0-9.5,4.3-9.5,9.5s4.2,9.5,9.5,9.5h35.3c5.3,0,9.5-4.3,9.5-9.5
		S204.9,458.6,199.6,458.6z"/>
	<path class="st0" d="M210.6,36.2h90.8c2,0,3.6-1.6,3.6-3.6s-1.6-3.6-3.6-3.6h-90.8c-2,0-3.6,1.6-3.6,3.6S208.6,36.2,210.6,36.2z"/>
	<path class="st0" d="M347.6,458.6h-35.3c-5.2,0-9.5,4.3-9.5,9.5s4.2,9.5,9.5,9.5h35.3c5.3,0,9.5-4.3,9.5-9.5
		S352.9,458.6,347.6,458.6z"/>
	<rect x="116.6" y="60.5" class="st0" width="278.8" height="370.4"/>
	<path d="M380.9,6H131.1c-16.6,0-30,13.4-30,30v440c0,16.6,13.4,30,30,30h249.8c16.6,0,30-13.4,30-30V36C410.9,19.4,397.5,6,380.9,6
		z M210.6,29h90.8c2,0,3.6,1.6,3.6,3.6s-1.6,3.6-3.6,3.6h-90.8c-2,0-3.6-1.6-3.6-3.6S208.6,29,210.6,29z M199.6,477.6h-35.3
		c-5.3,0-9.5-4.3-9.5-9.5s4.3-9.5,9.5-9.5h35.3c5.3,0,9.5,4.3,9.5,9.5S204.9,477.6,199.6,477.6z M275.8,475.8
		c0,6.7-5.4,12.1-12.1,12.1h-15.5c-6.7,0-12.1-5.4-12.1-12.1v-15.5c0-6.7,5.4-12.1,12.1-12.1h15.5c6.7,0,12.1,5.4,12.1,12.1V475.8z
		 M347.6,477.6h-35.3c-5.3,0-9.5-4.3-9.5-9.5s4.3-9.5,9.5-9.5h35.3c5.3,0,9.5,4.3,9.5,9.5S352.9,477.6,347.6,477.6z M395.4,430.9
		H116.6V60.5h278.8V430.9z"/>
</g>
</svg>
